<svg width="24" height="24" viewBox="0 0 24 24" fill="none" xmlns="http://www.w3.org/2000/svg">
<path d="M18.3621 19.872H5.64223C4.80007 19.872 4.11743 19.1893 4.11743 18.3472V5.62734C4.11743 4.78518 4.80012 4.10254 5.64223 4.10254H18.3621C19.2042 4.10254 19.8869 4.78523 19.8869 5.62734V18.3472C19.8869 19.1893 19.2042 19.872 18.3621 19.872Z" stroke="white" stroke-width="0.703125" stroke-miterlimit="10" stroke-linecap="round" stroke-linejoin="round"/>
<path d="M7.2384 3.88979V1.55762" stroke="white" stroke-width="0.703125" stroke-miterlimit="10" stroke-linecap="round" stroke-linejoin="round"/>
<path d="M9.62036 3.88979V1.55762" stroke="white" stroke-width="0.703125" stroke-miterlimit="10" stroke-linecap="round" stroke-linejoin="round"/>
<path d="M12.0022 3.88979V1.55762" stroke="white" stroke-width="0.703125" stroke-miterlimit="10" stroke-linecap="round" stroke-linejoin="round"/>
<path d="M14.384 3.88979V1.55762" stroke="white" stroke-width="0.703125" stroke-miterlimit="10" stroke-linecap="round" stroke-linejoin="round"/>
<path d="M16.7659 3.88979V1.55762" stroke="white" stroke-width="0.703125" stroke-miterlimit="10" stroke-linecap="round" stroke-linejoin="round"/>
<path d="M7.2384 22.4171V20.085" stroke="white" stroke-width="0.703125" stroke-miterlimit="10" stroke-linecap="round" stroke-linejoin="round"/>
<path d="M9.62036 22.4171V20.085" stroke="white" stroke-width="0.703125" stroke-miterlimit="10" stroke-linecap="round" stroke-linejoin="round"/>
<path d="M12.0022 22.4171V20.085" stroke="white" stroke-width="0.703125" stroke-miterlimit="10" stroke-linecap="round" stroke-linejoin="round"/>
<path d="M14.384 22.4171V20.085" stroke="white" stroke-width="0.703125" stroke-miterlimit="10" stroke-linecap="round" stroke-linejoin="round"/>
<path d="M16.7659 22.4171V20.085" stroke="white" stroke-width="0.703125" stroke-miterlimit="10" stroke-linecap="round" stroke-linejoin="round"/>
<path d="M3.90485 16.8037H1.57263" stroke="white" stroke-width="0.703125" stroke-miterlimit="10" stroke-linecap="round" stroke-linejoin="round"/>
<path d="M3.90485 14.3955H1.57263" stroke="white" stroke-width="0.703125" stroke-miterlimit="10" stroke-linecap="round" stroke-linejoin="round"/>
<path d="M3.90485 11.9863H1.57263" stroke="white" stroke-width="0.703125" stroke-miterlimit="10" stroke-linecap="round" stroke-linejoin="round"/>
<path d="M3.90485 9.57812H1.57263" stroke="white" stroke-width="0.703125" stroke-miterlimit="10" stroke-linecap="round" stroke-linejoin="round"/>
<path d="M3.90485 7.16992H1.57263" stroke="white" stroke-width="0.703125" stroke-miterlimit="10" stroke-linecap="round" stroke-linejoin="round"/>
<path d="M22.4317 16.8037H20.0995" stroke="white" stroke-width="0.703125" stroke-miterlimit="10" stroke-linecap="round" stroke-linejoin="round"/>
<path d="M22.4317 14.3955H20.0995" stroke="white" stroke-width="0.703125" stroke-miterlimit="10" stroke-linecap="round" stroke-linejoin="round"/>
<path d="M22.4317 11.9863H20.0995" stroke="white" stroke-width="0.703125" stroke-miterlimit="10" stroke-linecap="round" stroke-linejoin="round"/>
<path d="M22.4317 9.57812H20.0995" stroke="white" stroke-width="0.703125" stroke-miterlimit="10" stroke-linecap="round" stroke-linejoin="round"/>
<path d="M22.4317 7.16992H20.0995" stroke="white" stroke-width="0.703125" stroke-miterlimit="10" stroke-linecap="round" stroke-linejoin="round"/>
<path d="M15.8794 13.7912V10.1825C15.8794 9.80969 15.6866 9.46333 15.3697 9.26688L12.5698 7.53086C12.222 7.31523 11.7822 7.31523 11.4344 7.53086L8.6345 9.26688C8.31763 9.46333 8.12488 9.80964 8.12488 10.1825V13.7912C8.12488 14.164 8.31763 14.5104 8.6345 14.7068L11.4344 16.4428C11.7822 16.6585 12.2221 16.6585 12.5698 16.4428L15.3697 14.7068C15.6866 14.5104 15.8794 14.164 15.8794 13.7912Z" stroke="white" stroke-width="0.703125" stroke-miterlimit="10" stroke-linecap="round" stroke-linejoin="round"/>
<path d="M12.0021 13.7951C13.0064 13.7951 13.8205 12.981 13.8205 11.9767C13.8205 10.9724 13.0064 10.1582 12.0021 10.1582C10.9977 10.1582 10.1836 10.9724 10.1836 11.9767C10.1836 12.981 10.9977 13.7951 12.0021 13.7951Z" stroke="white" stroke-width="0.703125" stroke-miterlimit="10" stroke-linecap="round" stroke-linejoin="round"/>
</svg>
