<svg width="24" height="24" viewBox="0 0 24 24" fill="none" xmlns="http://www.w3.org/2000/svg">
<path d="M18.3623 19.872H5.64247C4.80032 19.872 4.11768 19.1893 4.11768 18.3472V5.62734C4.11768 4.78518 4.80036 4.10254 5.64247 4.10254H18.3623C19.2045 4.10254 19.8871 4.78523 19.8871 5.62734V18.3472C19.8871 19.1893 19.2044 19.872 18.3623 19.872Z" stroke="white" stroke-width="0.703125" stroke-miterlimit="10" stroke-linecap="round" stroke-linejoin="round"/>
<path d="M7.23853 3.88979V1.55762" stroke="white" stroke-width="0.703125" stroke-miterlimit="10" stroke-linecap="round" stroke-linejoin="round"/>
<path d="M9.62036 3.88979V1.55762" stroke="white" stroke-width="0.703125" stroke-miterlimit="10" stroke-linecap="round" stroke-linejoin="round"/>
<path d="M12.0022 3.88979V1.55762" stroke="white" stroke-width="0.703125" stroke-miterlimit="10" stroke-linecap="round" stroke-linejoin="round"/>
<path d="M14.384 3.88979V1.55762" stroke="white" stroke-width="0.703125" stroke-miterlimit="10" stroke-linecap="round" stroke-linejoin="round"/>
<path d="M16.7661 3.88979V1.55762" stroke="white" stroke-width="0.703125" stroke-miterlimit="10" stroke-linecap="round" stroke-linejoin="round"/>
<path d="M7.23853 22.4171V20.085" stroke="white" stroke-width="0.703125" stroke-miterlimit="10" stroke-linecap="round" stroke-linejoin="round"/>
<path d="M9.62036 22.4171V20.085" stroke="white" stroke-width="0.703125" stroke-miterlimit="10" stroke-linecap="round" stroke-linejoin="round"/>
<path d="M12.0022 22.4171V20.085" stroke="white" stroke-width="0.703125" stroke-miterlimit="10" stroke-linecap="round" stroke-linejoin="round"/>
<path d="M14.384 22.4171V20.085" stroke="white" stroke-width="0.703125" stroke-miterlimit="10" stroke-linecap="round" stroke-linejoin="round"/>
<path d="M16.7661 22.4171V20.085" stroke="white" stroke-width="0.703125" stroke-miterlimit="10" stroke-linecap="round" stroke-linejoin="round"/>
<path d="M3.90497 16.8037H1.57275" stroke="white" stroke-width="0.703125" stroke-miterlimit="10" stroke-linecap="round" stroke-linejoin="round"/>
<path d="M3.90497 14.3955H1.57275" stroke="white" stroke-width="0.703125" stroke-miterlimit="10" stroke-linecap="round" stroke-linejoin="round"/>
<path d="M3.90497 11.9863H1.57275" stroke="white" stroke-width="0.703125" stroke-miterlimit="10" stroke-linecap="round" stroke-linejoin="round"/>
<path d="M3.90497 9.57812H1.57275" stroke="white" stroke-width="0.703125" stroke-miterlimit="10" stroke-linecap="round" stroke-linejoin="round"/>
<path d="M3.90497 7.16992H1.57275" stroke="white" stroke-width="0.703125" stroke-miterlimit="10" stroke-linecap="round" stroke-linejoin="round"/>
<path d="M22.4318 16.8037H20.0996" stroke="white" stroke-width="0.703125" stroke-miterlimit="10" stroke-linecap="round" stroke-linejoin="round"/>
<path d="M22.4318 14.3955H20.0996" stroke="white" stroke-width="0.703125" stroke-miterlimit="10" stroke-linecap="round" stroke-linejoin="round"/>
<path d="M22.4318 11.9863H20.0996" stroke="white" stroke-width="0.703125" stroke-miterlimit="10" stroke-linecap="round" stroke-linejoin="round"/>
<path d="M22.4318 9.57812H20.0996" stroke="white" stroke-width="0.703125" stroke-miterlimit="10" stroke-linecap="round" stroke-linejoin="round"/>
<path d="M22.4318 7.16992H20.0996" stroke="white" stroke-width="0.703125" stroke-miterlimit="10" stroke-linecap="round" stroke-linejoin="round"/>
<path d="M15.8795 13.7912V10.1825C15.8795 9.80969 15.6867 9.46333 15.3699 9.26688L12.5699 7.53086C12.2222 7.31523 11.7823 7.31523 11.4346 7.53086L8.63463 9.26688C8.31775 9.46333 8.125 9.80964 8.125 10.1825V13.7912C8.125 14.164 8.31775 14.5104 8.63463 14.7068L11.4346 16.4428C11.7823 16.6585 12.2222 16.6585 12.5699 16.4428L15.3699 14.7068C15.6867 14.5104 15.8795 14.164 15.8795 13.7912Z" stroke="white" stroke-width="0.703125" stroke-miterlimit="10" stroke-linecap="round" stroke-linejoin="round"/>
<path d="M12.0021 13.7951C13.0064 13.7951 13.8205 12.981 13.8205 11.9767C13.8205 10.9724 13.0064 10.1582 12.0021 10.1582C10.9977 10.1582 10.1836 10.9724 10.1836 11.9767C10.1836 12.981 10.9977 13.7951 12.0021 13.7951Z" stroke="white" stroke-width="0.703125" stroke-miterlimit="10" stroke-linecap="round" stroke-linejoin="round"/>
</svg>
