<svg width="45" height="37" viewBox="0 0 45 37" fill="none" xmlns="http://www.w3.org/2000/svg">
<path opacity="0.8" d="M38.9771 27.2203H35.3033V22.8017C35.3033 22.4111 35.1098 22.0364 34.7653 21.7602C34.4208 21.484 33.9536 21.3288 33.4664 21.3288H24.282V17.3374L26.3577 18.2064C26.6604 18.3333 27.0012 18.3901 27.342 18.3703C27.6827 18.3505 28.0098 18.2549 28.2865 18.0942C28.5632 17.9336 28.7785 17.7142 28.9083 17.4608C29.0381 17.2075 29.0772 16.9301 29.0212 16.6599L28.2864 13.1692L31.4459 10.68C31.6852 10.4927 31.8561 10.2565 31.9403 9.9969C32.0244 9.73734 32.0186 9.46428 31.9234 9.20718C31.817 8.94542 31.6211 8.71282 31.3581 8.53579C31.0951 8.35876 30.7755 8.24438 30.4356 8.20563L26.1189 7.66068L24.0983 4.47929C23.9479 4.23028 23.713 4.02026 23.4206 3.87332C23.1283 3.72637 22.7902 3.64844 22.4451 3.64844C22.1 3.64844 21.7619 3.72637 21.4695 3.87332C21.1771 4.02026 20.9423 4.23028 20.7919 4.47929L18.7713 7.66068L14.3811 8.17618C14.0412 8.21492 13.7215 8.3293 13.4586 8.50633C13.1956 8.68336 12.9997 8.91596 12.8933 9.17772C12.7981 9.43483 12.7923 9.70789 12.8764 9.96744C12.9606 10.227 13.1315 10.4632 13.3708 10.6506L16.6038 13.1692L15.869 16.6599C15.813 16.9301 15.8521 17.2075 15.9819 17.4608C16.1117 17.7142 16.327 17.9336 16.6037 18.0942C16.8804 18.2549 17.2075 18.3505 17.5482 18.3703C17.8889 18.3901 18.2298 18.3333 18.5325 18.2064L20.6082 17.3374V21.3288H11.4237C10.9366 21.3288 10.4693 21.484 10.1249 21.7602C9.78038 22.0364 9.58685 22.4111 9.58685 22.8017V27.2203H5.91306C5.42589 27.2203 4.95867 27.3755 4.61418 27.6517C4.2697 27.9279 4.07617 28.3025 4.07617 28.6931V31.6389C4.07617 32.0295 4.2697 32.4041 4.61418 32.6803C4.95867 32.9566 5.42589 33.1117 5.91306 33.1117C6.40024 33.1117 6.86746 32.9566 7.21194 32.6803C7.55643 32.4041 7.74995 32.0295 7.74995 31.6389V30.166H15.0975V31.6389C15.0975 32.0295 15.2911 32.4041 15.6355 32.6803C15.98 32.9566 16.4472 33.1117 16.9344 33.1117C17.4216 33.1117 17.8888 32.9566 18.2333 32.6803C18.5778 32.4041 18.7713 32.0295 18.7713 31.6389V28.6931C18.7713 28.3025 18.5778 27.9279 18.2333 27.6517C17.8888 27.3755 17.4216 27.2203 16.9344 27.2203H13.2606V24.2746H31.6295V27.2203H27.9558C27.4686 27.2203 27.0014 27.3755 26.6569 27.6517C26.3124 27.9279 26.1189 28.3025 26.1189 28.6931V31.6389C26.1189 32.0295 26.3124 32.4041 26.6569 32.6803C27.0014 32.9566 27.4686 33.1117 27.9558 33.1117C28.4429 33.1117 28.9102 32.9566 29.2546 32.6803C29.5991 32.4041 29.7927 32.0295 29.7927 31.6389V30.166H37.1402V31.6389C37.1402 32.0295 37.3337 32.4041 37.6782 32.6803C38.0227 32.9566 38.4899 33.1117 38.9771 33.1117C39.4643 33.1117 39.9315 32.9566 40.276 32.6803C40.6205 32.4041 40.814 32.0295 40.814 31.6389V28.6931C40.814 28.3025 40.6205 27.9279 40.276 27.6517C39.9315 27.3755 39.4643 27.2203 38.9771 27.2203ZM22.4451 13.4196C22.1436 13.4208 21.8471 13.4815 21.5817 13.5963L20.1122 14.2149L20.3878 12.8893C20.436 12.6549 20.4127 12.4145 20.3199 12.1888C20.2272 11.9631 20.0677 11.7588 19.8551 11.5932L18.6611 10.6506L20.3143 10.4591C20.6101 10.4274 20.8917 10.3384 21.135 10.1999C21.3782 10.0613 21.5757 9.87729 21.7103 9.66377L22.4451 8.45602L23.1798 9.66377C23.3145 9.87729 23.512 10.0613 23.7552 10.1999C23.9984 10.3384 24.2801 10.4274 24.5759 10.4591L26.2291 10.6506L25.0351 11.5932C24.8225 11.7588 24.663 11.9631 24.5702 12.1888C24.4775 12.4145 24.4542 12.6549 24.5024 12.8893L24.7779 14.2149L23.3084 13.5963C23.0431 13.4815 22.7466 13.4208 22.4451 13.4196Z" fill="#101130"/>
</svg>
