<svg width="45" height="36" viewBox="0 0 45 36" fill="none" xmlns="http://www.w3.org/2000/svg">
<path opacity="0.8" d="M38.9766 27.0003H35.3028V22.5003C35.3028 22.1025 35.1093 21.721 34.7648 21.4396C34.4203 21.1583 33.9531 21.0003 33.4659 21.0003H24.2815V16.9353L26.3572 17.8203C26.6599 17.9496 27.0007 18.0074 27.3415 17.9873C27.6822 17.9671 28.0093 17.8697 28.286 17.7061C28.5627 17.5425 28.778 17.3191 28.9078 17.061C29.0376 16.803 29.0767 16.5205 29.0207 16.2453L28.2859 12.6903L31.4454 10.1553C31.6847 9.96448 31.8556 9.72392 31.9398 9.45958C32.024 9.19524 32.0181 8.91715 31.923 8.65531C31.8165 8.38872 31.6206 8.15184 31.3577 7.97154C31.0947 7.79125 30.775 7.67477 30.4351 7.63531L26.1184 7.08031L24.0978 3.84031C23.9474 3.5867 23.7125 3.37282 23.4202 3.22317C23.1278 3.07351 22.7897 2.99414 22.4446 2.99414C22.0995 2.99414 21.7614 3.07351 21.469 3.22317C21.1767 3.37282 20.9418 3.5867 20.7914 3.84031L18.7708 7.08031L14.3806 7.60531C14.0407 7.64476 13.7211 7.76125 13.4581 7.94154C13.1951 8.12184 12.9992 8.35872 12.8928 8.62531C12.7976 8.88715 12.7918 9.16524 12.8759 9.42958C12.9601 9.69392 13.1311 9.93448 13.3704 10.1253L16.6033 12.6903L15.8685 16.2453C15.8125 16.5205 15.8516 16.803 15.9814 17.061C16.1112 17.3191 16.3265 17.5425 16.6032 17.7061C16.8799 17.8697 17.207 17.9671 17.5477 17.9873C17.8885 18.0074 18.2293 17.9496 18.532 17.8203L20.6077 16.9353V21.0003H11.4232C10.9361 21.0003 10.4689 21.1583 10.1244 21.4396C9.77989 21.721 9.58636 22.1025 9.58636 22.5003V27.0003H5.91258C5.4254 27.0003 4.95818 27.1583 4.6137 27.4396C4.26921 27.7209 4.07568 28.1025 4.07568 28.5003V31.5003C4.07568 31.8981 4.26921 32.2797 4.6137 32.561C4.95818 32.8423 5.4254 33.0003 5.91258 33.0003C6.39975 33.0003 6.86697 32.8423 7.21145 32.561C7.55594 32.2797 7.74947 31.8981 7.74947 31.5003V30.0003H15.097V31.5003C15.097 31.8981 15.2906 32.2797 15.635 32.561C15.9795 32.8423 16.4468 33.0003 16.9339 33.0003C17.4211 33.0003 17.8883 32.8423 18.2328 32.561C18.5773 32.2797 18.7708 31.8981 18.7708 31.5003V28.5003C18.7708 28.1025 18.5773 27.7209 18.2328 27.4396C17.8883 27.1583 17.4211 27.0003 16.9339 27.0003H13.2601V24.0003H31.6291V27.0003H27.9553C27.4681 27.0003 27.0009 27.1583 26.6564 27.4396C26.3119 27.7209 26.1184 28.1025 26.1184 28.5003V31.5003C26.1184 31.8981 26.3119 32.2797 26.6564 32.561C27.0009 32.8423 27.4681 33.0003 27.9553 33.0003C28.4424 33.0003 28.9097 32.8423 29.2542 32.561C29.5986 32.2797 29.7922 31.8981 29.7922 31.5003V30.0003H37.1397V31.5003C37.1397 31.8981 37.3333 32.2797 37.6777 32.561C38.0222 32.8423 38.4894 33.0003 38.9766 33.0003C39.4638 33.0003 39.931 32.8423 40.2755 32.561C40.62 32.2797 40.8135 31.8981 40.8135 31.5003V28.5003C40.8135 28.1025 40.62 27.7209 40.2755 27.4396C39.931 27.1583 39.4638 27.0003 38.9766 27.0003ZM22.4446 12.9453C22.1431 12.9465 21.8466 13.0084 21.5813 13.1253L20.1117 13.7553L20.3873 12.4053C20.4355 12.1665 20.4122 11.9217 20.3194 11.6919C20.2267 11.462 20.0672 11.2539 19.8546 11.0853L18.6606 10.1253L20.3138 9.93031C20.6096 9.89804 20.8913 9.80742 21.1345 9.66629C21.3777 9.52515 21.5752 9.33776 21.7098 9.12031L22.4446 7.89031L23.1794 9.12031C23.314 9.33776 23.5115 9.52515 23.7547 9.66629C23.9979 9.80742 24.2796 9.89804 24.5754 9.93031L26.2286 10.1253L25.0346 11.0853C24.822 11.2539 24.6625 11.462 24.5698 11.6919C24.477 11.9217 24.4537 12.1665 24.5019 12.4053L24.7775 13.7553L23.3079 13.1253C23.0426 13.0084 22.7461 12.9465 22.4446 12.9453Z" fill="#101130"/>
</svg>
