<svg width="45" height="36" viewBox="0 0 45 36" fill="none" xmlns="http://www.w3.org/2000/svg">
<path opacity="0.8" d="M38.9771 27.0003H35.3033V22.5003C35.3033 22.1025 35.1098 21.721 34.7653 21.4396C34.4208 21.1583 33.9536 21.0003 33.4664 21.0003H24.282V16.9353L26.3577 17.8203C26.6604 17.9496 27.0012 18.0074 27.342 17.9873C27.6827 17.9671 28.0098 17.8697 28.2865 17.7061C28.5632 17.5425 28.7785 17.3191 28.9083 17.061C29.0381 16.803 29.0772 16.5205 29.0212 16.2453L28.2864 12.6903L31.4459 10.1553C31.6852 9.96448 31.8561 9.72392 31.9403 9.45958C32.0244 9.19524 32.0186 8.91715 31.9234 8.65531C31.817 8.38872 31.6211 8.15184 31.3581 7.97154C31.0951 7.79125 30.7755 7.67477 30.4356 7.63531L26.1189 7.08031L24.0983 3.84031C23.9479 3.5867 23.713 3.37282 23.4206 3.22317C23.1283 3.07351 22.7902 2.99414 22.4451 2.99414C22.1 2.99414 21.7619 3.07351 21.4695 3.22317C21.1771 3.37282 20.9423 3.5867 20.7919 3.84031L18.7713 7.08031L14.3811 7.60531C14.0412 7.64476 13.7215 7.76125 13.4586 7.94154C13.1956 8.12184 12.9997 8.35872 12.8933 8.62531C12.7981 8.88715 12.7923 9.16524 12.8764 9.42958C12.9606 9.69392 13.1315 9.93448 13.3708 10.1253L16.6038 12.6903L15.869 16.2453C15.813 16.5205 15.8521 16.803 15.9819 17.061C16.1117 17.3191 16.327 17.5425 16.6037 17.7061C16.8804 17.8697 17.2075 17.9671 17.5482 17.9873C17.8889 18.0074 18.2298 17.9496 18.5325 17.8203L20.6082 16.9353V21.0003H11.4237C10.9366 21.0003 10.4693 21.1583 10.1249 21.4396C9.78038 21.721 9.58685 22.1025 9.58685 22.5003V27.0003H5.91306C5.42589 27.0003 4.95867 27.1583 4.61418 27.4396C4.2697 27.7209 4.07617 28.1025 4.07617 28.5003V31.5003C4.07617 31.8981 4.2697 32.2797 4.61418 32.561C4.95867 32.8423 5.42589 33.0003 5.91306 33.0003C6.40024 33.0003 6.86746 32.8423 7.21194 32.561C7.55643 32.2797 7.74995 31.8981 7.74995 31.5003V30.0003H15.0975V31.5003C15.0975 31.8981 15.2911 32.2797 15.6355 32.561C15.98 32.8423 16.4472 33.0003 16.9344 33.0003C17.4216 33.0003 17.8888 32.8423 18.2333 32.561C18.5778 32.2797 18.7713 31.8981 18.7713 31.5003V28.5003C18.7713 28.1025 18.5778 27.7209 18.2333 27.4396C17.8888 27.1583 17.4216 27.0003 16.9344 27.0003H13.2606V24.0003H31.6295V27.0003H27.9558C27.4686 27.0003 27.0014 27.1583 26.6569 27.4396C26.3124 27.7209 26.1189 28.1025 26.1189 28.5003V31.5003C26.1189 31.8981 26.3124 32.2797 26.6569 32.561C27.0014 32.8423 27.4686 33.0003 27.9558 33.0003C28.4429 33.0003 28.9102 32.8423 29.2546 32.561C29.5991 32.2797 29.7927 31.8981 29.7927 31.5003V30.0003H37.1402V31.5003C37.1402 31.8981 37.3337 32.2797 37.6782 32.561C38.0227 32.8423 38.4899 33.0003 38.9771 33.0003C39.4643 33.0003 39.9315 32.8423 40.276 32.561C40.6205 32.2797 40.814 31.8981 40.814 31.5003V28.5003C40.814 28.1025 40.6205 27.7209 40.276 27.4396C39.9315 27.1583 39.4643 27.0003 38.9771 27.0003ZM22.4451 12.9453C22.1436 12.9465 21.8471 13.0084 21.5817 13.1253L20.1122 13.7553L20.3878 12.4053C20.436 12.1665 20.4127 11.9217 20.3199 11.6919C20.2272 11.462 20.0677 11.2539 19.8551 11.0853L18.6611 10.1253L20.3143 9.93031C20.6101 9.89804 20.8917 9.80742 21.135 9.66629C21.3782 9.52515 21.5757 9.33776 21.7103 9.12031L22.4451 7.89031L23.1798 9.12031C23.3145 9.33776 23.512 9.52515 23.7552 9.66629C23.9984 9.80742 24.2801 9.89804 24.5759 9.93031L26.2291 10.1253L25.0351 11.0853C24.8225 11.2539 24.663 11.462 24.5702 11.6919C24.4775 11.9217 24.4542 12.1665 24.5024 12.4053L24.7779 13.7553L23.3084 13.1253C23.0431 13.0084 22.7466 12.9465 22.4451 12.9453Z" fill="#101130"/>
</svg>
