<svg width="45" height="37" viewBox="0 0 45 37" fill="none" xmlns="http://www.w3.org/2000/svg">
<path opacity="0.8" d="M38.9771 27.2208H35.3033V22.8022C35.3033 22.4116 35.1098 22.0369 34.7653 21.7607C34.4208 21.4845 33.9536 21.3293 33.4664 21.3293H24.282V17.3379L26.3577 18.2069C26.6604 18.3338 27.0012 18.3906 27.342 18.3708C27.6827 18.351 28.0098 18.2554 28.2865 18.0947C28.5632 17.9341 28.7785 17.7147 28.9083 17.4613C29.0381 17.2079 29.0772 16.9306 29.0212 16.6603L28.2864 13.1697L31.4459 10.6805C31.6852 10.4932 31.8561 10.257 31.9403 9.99739C32.0244 9.73783 32.0186 9.46477 31.9234 9.20767C31.817 8.9459 31.6211 8.71331 31.3581 8.53628C31.0951 8.35925 30.7755 8.24487 30.4356 8.20612L26.1189 7.66116L24.0983 4.47978C23.9479 4.23076 23.713 4.02075 23.4206 3.87381C23.1283 3.72686 22.7902 3.64893 22.4451 3.64893C22.1 3.64893 21.7619 3.72686 21.4695 3.87381C21.1771 4.02075 20.9423 4.23076 20.7919 4.47978L18.7713 7.66116L14.3811 8.17667C14.0412 8.21541 13.7215 8.32979 13.4586 8.50682C13.1956 8.68385 12.9997 8.91645 12.8933 9.17821C12.7981 9.43531 12.7923 9.70837 12.8764 9.96793C12.9606 10.2275 13.1315 10.4637 13.3708 10.6511L16.6038 13.1697L15.869 16.6603C15.813 16.9306 15.8521 17.2079 15.9819 17.4613C16.1117 17.7147 16.327 17.9341 16.6037 18.0947C16.8804 18.2554 17.2075 18.351 17.5482 18.3708C17.8889 18.3906 18.2298 18.3338 18.5325 18.2069L20.6082 17.3379V21.3293H11.4237C10.9366 21.3293 10.4693 21.4845 10.1249 21.7607C9.78038 22.0369 9.58685 22.4116 9.58685 22.8022V27.2208H5.91306C5.42589 27.2208 4.95867 27.3759 4.61418 27.6522C4.2697 27.9284 4.07617 28.303 4.07617 28.6936V31.6394C4.07617 32.03 4.2697 32.4046 4.61418 32.6808C4.95867 32.957 5.42589 33.1122 5.91306 33.1122C6.40024 33.1122 6.86746 32.957 7.21194 32.6808C7.55643 32.4046 7.74995 32.03 7.74995 31.6394V30.1665H15.0975V31.6394C15.0975 32.03 15.2911 32.4046 15.6355 32.6808C15.98 32.957 16.4472 33.1122 16.9344 33.1122C17.4216 33.1122 17.8888 32.957 18.2333 32.6808C18.5778 32.4046 18.7713 32.03 18.7713 31.6394V28.6936C18.7713 28.303 18.5778 27.9284 18.2333 27.6522C17.8888 27.3759 17.4216 27.2208 16.9344 27.2208H13.2606V24.275H31.6295V27.2208H27.9558C27.4686 27.2208 27.0014 27.3759 26.6569 27.6522C26.3124 27.9284 26.1189 28.303 26.1189 28.6936V31.6394C26.1189 32.03 26.3124 32.4046 26.6569 32.6808C27.0014 32.957 27.4686 33.1122 27.9558 33.1122C28.4429 33.1122 28.9102 32.957 29.2546 32.6808C29.5991 32.4046 29.7927 32.03 29.7927 31.6394V30.1665H37.1402V31.6394C37.1402 32.03 37.3337 32.4046 37.6782 32.6808C38.0227 32.957 38.4899 33.1122 38.9771 33.1122C39.4643 33.1122 39.9315 32.957 40.276 32.6808C40.6205 32.4046 40.814 32.03 40.814 31.6394V28.6936C40.814 28.303 40.6205 27.9284 40.276 27.6522C39.9315 27.3759 39.4643 27.2208 38.9771 27.2208ZM22.4451 13.4201C22.1436 13.4213 21.8471 13.482 21.5817 13.5968L20.1122 14.2154L20.3878 12.8898C20.436 12.6554 20.4127 12.415 20.3199 12.1893C20.2272 11.9636 20.0677 11.7593 19.8551 11.5937L18.6611 10.6511L20.3143 10.4596C20.6101 10.4279 20.8917 10.3389 21.135 10.2004C21.3782 10.0618 21.5757 9.87777 21.7103 9.66426L22.4451 8.45651L23.1798 9.66426C23.3145 9.87777 23.512 10.0618 23.7552 10.2004C23.9984 10.3389 24.2801 10.4279 24.5759 10.4596L26.2291 10.6511L25.0351 11.5937C24.8225 11.7593 24.663 11.9636 24.5702 12.1893C24.4775 12.415 24.4542 12.6554 24.5024 12.8898L24.7779 14.2154L23.3084 13.5968C23.0431 13.482 22.7466 13.4213 22.4451 13.4201Z" fill="#101130"/>
</svg>
