<svg width="23" height="18" viewBox="0 0 23 18" fill="none" xmlns="http://www.w3.org/2000/svg">
<path fill-rule="evenodd" clip-rule="evenodd" d="M13.4723 7.99105H15.9336C16.3068 7.99105 16.6 7.74422 16.6 7.44658C16.6 7.14167 16.3068 6.90211 15.9336 6.90211H13.4723C13.0991 6.90211 12.8058 7.14167 12.8058 7.44658C12.8058 7.74422 13.0991 7.99105 13.4723 7.99105ZM18.8569 4.21675C19.399 4.21675 19.7544 4.3692 20.1098 4.70315C20.4652 5.03709 20.5274 5.51622 20.4475 5.95107L19.6033 10.7134C19.4434 11.6288 18.4838 12.3032 17.3553 12.3032H7.66108C6.47929 12.3032 5.50187 11.5635 5.40413 10.6052L4.58665 2.69151L3.24493 2.50276C2.8895 2.45195 2.64071 2.16882 2.7029 1.87844C2.7651 1.58152 3.11164 1.38478 3.47595 1.42907L5.59517 1.68969C5.89728 1.73397 6.11942 1.93651 6.14608 2.18334L6.31491 3.80949C6.34156 4.04252 6.57259 4.21675 6.85693 4.21675H18.8569ZM7.51873 13.4506C6.77234 13.4506 6.16812 13.9443 6.16812 14.5541C6.16812 15.1566 6.77234 15.6503 7.51873 15.6503C8.25623 15.6503 8.86046 15.1566 8.86046 14.5541C8.86046 13.9443 8.25623 13.4506 7.51873 13.4506ZM17.515 13.4506C16.7687 13.4506 16.1644 13.9443 16.1644 14.5541C16.1644 15.1566 16.7687 15.6503 17.515 15.6503C18.2525 15.6503 18.8568 15.1566 18.8568 14.5541C18.8568 13.9443 18.2525 13.4506 17.515 13.4506Z" fill="#F19203"/>
</svg>
