<svg width="24" height="22" viewBox="0 0 24 22" fill="none" xmlns="http://www.w3.org/2000/svg">
<path fill-rule="evenodd" clip-rule="evenodd" d="M14.1213 10.2967H16.8891C17.3088 10.2967 17.6386 9.97868 17.6386 9.59514C17.6386 9.20224 17.3088 8.89354 16.8891 8.89354H14.1213C13.7016 8.89354 13.3719 9.20224 13.3719 9.59514C13.3719 9.97868 13.7016 10.2967 14.1213 10.2967ZM20.1766 5.43321C20.7861 5.43321 21.1858 5.62966 21.5855 6.05997C21.9852 6.49029 22.0551 7.10769 21.9652 7.66804L21.0159 13.8047C20.8361 14.9843 19.7569 15.8534 18.4879 15.8534H7.58639C6.25742 15.8534 5.15828 14.9001 5.04837 13.6653L4.12908 3.46779L2.62026 3.22457C2.22057 3.15909 1.94079 2.79426 2.01073 2.42007C2.08068 2.03747 2.47038 1.78395 2.88006 1.84102L5.2632 2.17685C5.60293 2.23391 5.85274 2.49491 5.88272 2.81297L6.07257 4.90841C6.10254 5.2087 6.36234 5.43321 6.68209 5.43321H20.1766ZM7.42631 17.3319C6.58697 17.3319 5.9075 17.968 5.9075 18.7538C5.9075 19.5302 6.58697 20.1664 7.42631 20.1664C8.25567 20.1664 8.93514 19.5302 8.93514 18.7538C8.93514 17.968 8.25567 17.3319 7.42631 17.3319ZM18.6675 17.3319C17.8282 17.3319 17.1487 17.968 17.1487 18.7538C17.1487 19.5302 17.8282 20.1664 18.6675 20.1664C19.4969 20.1664 20.1764 19.5302 20.1764 18.7538C20.1764 17.968 19.4969 17.3319 18.6675 17.3319Z" fill="#F19203"/>
</svg>
