<svg width="22" height="21" viewBox="0 0 22 21" fill="none" xmlns="http://www.w3.org/2000/svg">
<path fill-rule="evenodd" clip-rule="evenodd" d="M10.9352 18.6407C6.07898 18.6407 2.1377 14.9333 2.1377 10.3467C2.1377 5.76845 6.07898 2.05273 10.9352 2.05273C15.8002 2.05273 19.7327 5.76845 19.7327 10.3467C19.7327 14.9333 15.8002 18.6407 10.9352 18.6407ZM13.7416 13.4238C13.8472 13.4818 13.9616 13.515 14.0847 13.515C14.3047 13.515 14.5246 13.4072 14.6478 13.2081C14.8325 12.9178 14.7357 12.5363 14.419 12.3539L11.2871 10.5955V6.7637C11.2871 6.41535 10.988 6.14165 10.6273 6.14165C10.2666 6.14165 9.96748 6.41535 9.96748 6.7637V10.9522C9.96748 11.1678 10.0906 11.3669 10.293 11.483L13.7416 13.4238Z" fill="#F77E53"/>
</svg>
