<svg width="22" height="18" viewBox="0 0 22 18" fill="none" xmlns="http://www.w3.org/2000/svg">
<path fill-rule="evenodd" clip-rule="evenodd" d="M13.0113 7.99105H15.4726C15.8458 7.99105 16.1391 7.74422 16.1391 7.44658C16.1391 7.14167 15.8458 6.90211 15.4726 6.90211H13.0113C12.6381 6.90211 12.3449 7.14167 12.3449 7.44658C12.3449 7.74422 12.6381 7.99105 13.0113 7.99105ZM18.396 4.21675C18.938 4.21675 19.2935 4.3692 19.6489 4.70315C20.0043 5.03709 20.0665 5.51622 19.9865 5.95107L19.1424 10.7134C18.9825 11.6288 18.0228 12.3032 16.8943 12.3032H7.20014C6.01835 12.3032 5.04094 11.5635 4.94319 10.6052L4.12572 2.69151L2.78399 2.50276C2.42856 2.45195 2.17977 2.16882 2.24197 1.87844C2.30417 1.58152 2.65071 1.38478 3.01502 1.42907L5.13423 1.68969C5.43634 1.73397 5.65849 1.93651 5.68514 2.18334L5.85397 3.80949C5.88063 4.04252 6.11165 4.21675 6.39599 4.21675H18.396ZM7.05779 13.4506C6.3114 13.4506 5.70718 13.9443 5.70718 14.5541C5.70718 15.1566 6.3114 15.6503 7.05779 15.6503C7.7953 15.6503 8.39952 15.1566 8.39952 14.5541C8.39952 13.9443 7.7953 13.4506 7.05779 13.4506ZM17.0541 13.4506C16.3077 13.4506 15.7035 13.9443 15.7035 14.5541C15.7035 15.1566 16.3077 15.6503 17.0541 15.6503C17.7916 15.6503 18.3958 15.1566 18.3958 14.5541C18.3958 13.9443 17.7916 13.4506 17.0541 13.4506Z" fill="#F19203"/>
</svg>
