<svg width="23" height="23" viewBox="0 0 23 23" fill="none" xmlns="http://www.w3.org/2000/svg">
<path fill-rule="evenodd" clip-rule="evenodd" d="M11.5001 21.0837C6.21008 21.0837 1.91675 16.7999 1.91675 11.5003C1.91675 6.21033 6.21008 1.91699 11.5001 1.91699C16.7997 1.91699 21.0834 6.21033 21.0834 11.5003C21.0834 16.7999 16.7997 21.0837 11.5001 21.0837ZM14.5572 15.0557C14.6722 15.1228 14.7967 15.1611 14.9309 15.1611C15.1705 15.1611 15.4101 15.0365 15.5442 14.8065C15.7455 14.4711 15.6401 14.0303 15.2951 13.8195L11.8834 11.7878V7.36029C11.8834 6.95779 11.5576 6.64154 11.1647 6.64154C10.7717 6.64154 10.4459 6.95779 10.4459 7.36029V12.1999C10.4459 12.449 10.5801 12.679 10.8005 12.8132L14.5572 15.0557Z" fill="#F77E53"/>
</svg>
