<svg width="22" height="21" viewBox="0 0 22 21" fill="none" xmlns="http://www.w3.org/2000/svg">
<path fill-rule="evenodd" clip-rule="evenodd" d="M12.819 10.1062H15.254C15.6232 10.1062 15.9133 9.81844 15.9133 9.47142C15.9133 9.11592 15.6232 8.83661 15.254 8.83661H12.819C12.4498 8.83661 12.1597 9.11592 12.1597 9.47142C12.1597 9.81844 12.4498 10.1062 12.819 10.1062ZM18.1461 5.7057C18.6824 5.7057 19.034 5.88345 19.3856 6.2728C19.7373 6.66215 19.7988 7.22078 19.7197 7.72778L18.8846 13.2802C18.7263 14.3475 17.7769 15.1339 16.6605 15.1339H7.06991C5.90075 15.1339 4.93378 14.2714 4.83708 13.1541L4.02834 3.9274L2.70095 3.70733C2.34932 3.64808 2.10318 3.31798 2.16472 2.97942C2.22625 2.63324 2.56909 2.40386 2.9295 2.45549L5.02608 2.75935C5.32496 2.81098 5.54473 3.04713 5.5711 3.33491L5.73812 5.23087C5.76449 5.50257 5.99305 5.7057 6.27435 5.7057H18.1461ZM6.92908 16.4716C6.19066 16.4716 5.5929 17.0472 5.5929 17.7582C5.5929 18.4607 6.19066 19.0363 6.92908 19.0363C7.6587 19.0363 8.25647 18.4607 8.25647 17.7582C8.25647 17.0472 7.6587 16.4716 6.92908 16.4716ZM16.8186 16.4716C16.0802 16.4716 15.4824 17.0472 15.4824 17.7582C15.4824 18.4607 16.0802 19.0363 16.8186 19.0363C17.5482 19.0363 18.146 18.4607 18.146 17.7582C18.146 17.0472 17.5482 16.4716 16.8186 16.4716Z" fill="black"/>
</svg>
