<svg width="23" height="17" viewBox="0 0 23 17" fill="none" xmlns="http://www.w3.org/2000/svg">
<path fill-rule="evenodd" clip-rule="evenodd" d="M15.4852 6.1863C15.4852 7.78753 13.6901 9.07145 11.4513 9.07145C9.21255 9.07145 7.41741 7.78753 7.41741 6.1863C7.41741 4.58446 9.21255 3.30176 11.4513 3.30176C13.6901 3.30176 15.4852 4.58446 15.4852 6.1863ZM11.4513 14.2052C8.1631 14.2052 5.35542 13.8345 5.35542 12.3517C5.35542 10.8683 8.14508 10.4842 11.4513 10.4842C14.7395 10.4842 17.5472 10.8548 17.5472 12.3382C17.5472 13.821 14.7576 14.2052 11.4513 14.2052ZM17.209 6.23832C17.209 7.05458 16.8667 7.815 16.266 8.44714C16.2042 8.5122 16.2591 8.59996 16.3681 8.61346C16.5183 8.63188 16.6736 8.64231 16.8315 8.64538C18.4061 8.67484 19.8194 7.95002 20.2098 6.8588C20.7882 5.23794 19.09 3.78278 16.9276 3.78278C16.6925 3.78278 16.4677 3.80058 16.2488 3.83249C16.2188 3.8374 16.1871 3.84722 16.1699 3.86625C16.1493 3.88957 16.1647 3.92087 16.1853 3.94112C16.8349 4.59229 17.209 5.38646 17.209 6.23832ZM19.8168 9.78425C20.8748 9.93216 21.5707 10.2341 21.8591 10.6729C22.1028 11.0332 22.1028 11.4511 21.8591 11.8108C21.418 12.4914 19.9961 12.7099 19.4435 12.7664C19.3294 12.7787 19.2376 12.7081 19.2496 12.6264C19.5319 10.7404 17.2863 9.84624 16.7053 9.64064C16.6805 9.63143 16.6753 9.61732 16.6779 9.60873C16.6796 9.60259 16.6899 9.59277 16.7088 9.59093C17.9659 9.57436 19.3174 9.6971 19.8168 9.78425ZM6.16905 8.64537C6.32694 8.6423 6.4814 8.63248 6.63243 8.61346C6.7414 8.59996 6.79632 8.51219 6.73454 8.44714C6.13387 7.81499 5.79149 7.05458 5.79149 6.23831C5.79149 5.38645 6.16562 4.59228 6.8152 3.94111C6.83579 3.92086 6.85038 3.88956 6.83065 3.86624C6.81348 3.84783 6.78088 3.83739 6.7517 3.83248C6.53203 3.80057 6.30721 3.78277 6.07209 3.78277C3.90969 3.78277 2.21152 5.23793 2.79074 6.8588C3.18117 7.95001 4.59445 8.67483 6.16905 8.64537ZM6.32223 9.60834C6.3248 9.61755 6.31965 9.63105 6.29563 9.64087C5.71384 9.84647 3.46821 10.7407 3.75052 12.6261C3.76253 12.7083 3.67158 12.7783 3.55745 12.7666C3.00484 12.7101 1.58297 12.4917 1.14191 11.811C0.897357 11.4508 0.897357 11.0334 1.14191 10.6732C1.43023 10.2343 2.12529 9.93239 3.18332 9.78387C3.68359 9.69733 5.03423 9.57459 6.2922 9.59116C6.31107 9.593 6.32051 9.60282 6.32223 9.60834Z" fill="#F77E53"/>
</svg>
