<svg width="22" height="25" viewBox="0 0 22 25" fill="none" xmlns="http://www.w3.org/2000/svg">
<path fill-rule="evenodd" clip-rule="evenodd" d="M12.9446 11.7014H15.4817C15.8664 11.7014 16.1687 11.3399 16.1687 10.9041C16.1687 10.4576 15.8664 10.1068 15.4817 10.1068H12.9446C12.5599 10.1068 12.2576 10.4576 12.2576 10.9041C12.2576 11.3399 12.5599 11.7014 12.9446 11.7014ZM18.4952 6.17463C19.054 6.17463 19.4203 6.39787 19.7867 6.88686C20.1531 7.37586 20.2172 8.07746 20.1348 8.71421L19.2646 15.6877C19.0998 17.0282 18.1105 18.0157 16.9473 18.0157H6.95423C5.73601 18.0157 4.72846 16.9325 4.62771 15.5293L3.78503 3.94121L2.40194 3.66482C2.03556 3.59041 1.7791 3.17583 1.84321 2.75061C1.90733 2.31583 2.26455 2.02775 2.64009 2.0926L4.82464 2.47423C5.13606 2.53907 5.36505 2.83566 5.39253 3.19709L5.56656 5.57827C5.59404 5.91951 5.83219 6.17463 6.12529 6.17463H18.4952ZM6.80749 19.6959C6.03809 19.6959 5.41525 20.4187 5.41525 21.3117C5.41525 22.194 6.03809 22.9169 6.80749 22.9169C7.56773 22.9169 8.19058 22.194 8.19058 21.3117C8.19058 20.4187 7.56773 19.6959 6.80749 19.6959ZM17.112 19.6959C16.3426 19.6959 15.7197 20.4187 15.7197 21.3117C15.7197 22.194 16.3426 22.9169 17.112 22.9169C17.8722 22.9169 18.495 22.194 18.495 21.3117C18.495 20.4187 17.8722 19.6959 17.112 19.6959Z" fill="black"/>
</svg>
