<svg width="20" height="16" viewBox="0 0 20 16" fill="none" xmlns="http://www.w3.org/2000/svg">
<path fill-rule="evenodd" clip-rule="evenodd" d="M9.73903 14.2586C5.42073 14.2586 1.91602 11.4618 1.91602 8.00184C1.91602 4.54813 5.42073 1.74512 9.73903 1.74512C14.0652 1.74512 17.5621 4.54813 17.5621 8.00184C17.5621 11.4618 14.0652 14.2586 9.73903 14.2586ZM12.2346 10.3231C12.3285 10.3669 12.4302 10.3919 12.5397 10.3919C12.7352 10.3919 12.9308 10.3106 13.0403 10.1604C13.2046 9.94141 13.1186 9.6536 12.8369 9.51595L10.052 8.18952V5.29892C10.052 5.03613 9.78597 4.82966 9.46523 4.82966C9.14448 4.82966 8.8785 5.03613 8.8785 5.29892V8.45856C8.8785 8.62124 8.98802 8.7714 9.16795 8.85899L12.2346 10.3231Z" fill="#F77E53"/>
</svg>
