<svg width="22" height="18" viewBox="0 0 22 18" fill="none" xmlns="http://www.w3.org/2000/svg">
<path fill-rule="evenodd" clip-rule="evenodd" d="M14.4435 6.36073C14.4435 8.03223 12.7777 9.3725 10.7003 9.3725C8.62294 9.3725 6.95721 8.03223 6.95721 6.36073C6.95721 4.6886 8.62294 3.34961 10.7003 3.34961C12.7777 3.34961 14.4435 4.6886 14.4435 6.36073ZM10.7003 14.7315C7.64914 14.7315 5.04385 14.3446 5.04385 12.7967C5.04385 11.2483 7.63242 10.8472 10.7003 10.8472C13.7515 10.8472 16.3568 11.2342 16.3568 12.7826C16.3568 14.3305 13.7682 14.7315 10.7003 14.7315ZM16.043 6.41504C16.043 7.26712 15.7253 8.06091 15.168 8.72079C15.1106 8.7887 15.1616 8.88032 15.2627 8.89441C15.4021 8.91363 15.5462 8.92452 15.6927 8.92773C17.1538 8.95848 18.4652 8.20185 18.8275 7.06275C19.3641 5.37076 17.7884 3.85174 15.7819 3.85174C15.5637 3.85174 15.3551 3.87032 15.152 3.90363C15.1242 3.90876 15.0947 3.91901 15.0788 3.93887C15.0597 3.96322 15.074 3.99589 15.0931 4.01703C15.6959 4.69678 16.043 5.5258 16.043 6.41504ZM18.4628 10.1166C19.4446 10.271 20.0903 10.5862 20.3578 11.0443C20.584 11.4203 20.584 11.8566 20.3578 12.2321C19.9486 12.9426 18.6292 13.1706 18.1164 13.2296C18.0105 13.2424 17.9253 13.1687 17.9365 13.0835C18.1984 11.1147 16.1147 10.1813 15.5756 9.96666C15.5525 9.95705 15.5478 9.94232 15.5502 9.93335C15.5517 9.92694 15.5613 9.91669 15.5788 9.91477C16.7453 9.89747 17.9994 10.0256 18.4628 10.1166ZM5.79883 8.92772C5.94534 8.92452 6.08866 8.91427 6.2288 8.89441C6.32993 8.88031 6.38089 8.7887 6.32356 8.72079C5.76619 8.0609 5.44849 7.26712 5.44849 6.41503C5.44849 5.52579 5.79565 4.69677 6.3984 4.01702C6.41751 3.99588 6.43105 3.96321 6.41273 3.93886C6.39681 3.91964 6.36655 3.90875 6.33948 3.90363C6.13564 3.87031 5.92703 3.85173 5.70886 3.85173C3.70233 3.85173 2.12657 5.37075 2.66404 7.06275C3.02632 8.20185 4.33773 8.95847 5.79883 8.92772ZM5.94097 9.93295C5.94336 9.94256 5.93858 9.95665 5.91628 9.9669C5.37643 10.1815 3.29267 11.115 3.55463 13.0831C3.56578 13.1689 3.48138 13.242 3.37548 13.2298C2.8627 13.1709 1.54333 12.9428 1.13406 12.2323C0.907135 11.8562 0.907135 11.4206 1.13406 11.0445C1.4016 10.5864 2.04655 10.2712 3.02832 10.1162C3.49253 10.0258 4.74581 9.89771 5.9131 9.91501C5.93062 9.91693 5.93937 9.92718 5.94097 9.93295Z" fill="#F77E53"/>
</svg>
