<svg width="23" height="18" viewBox="0 0 23 18" fill="none" xmlns="http://www.w3.org/2000/svg">
<path fill-rule="evenodd" clip-rule="evenodd" d="M15.1212 5.85683C15.1212 7.52832 13.4555 8.86859 11.3781 8.86859C9.30068 8.86859 7.63494 7.52832 7.63494 5.85683C7.63494 4.18469 9.30068 2.8457 11.3781 2.8457C13.4555 2.8457 15.1212 4.18469 15.1212 5.85683ZM11.3781 14.2276C8.32688 14.2276 5.72158 13.8407 5.72158 12.2928C5.72158 10.7443 8.31016 10.3433 11.3781 10.3433C14.4293 10.3433 17.0346 10.7302 17.0346 12.2787C17.0346 13.8266 14.446 14.2276 11.3781 14.2276ZM16.7208 5.91113C16.7208 6.76322 16.4031 7.557 15.8457 8.21689C15.7884 8.2848 15.8393 8.37641 15.9404 8.39051C16.0798 8.40973 16.2239 8.42062 16.3704 8.42382C17.8315 8.45457 19.1429 7.69795 19.5052 6.55885C20.0419 4.86685 18.4661 3.34783 16.4596 3.34783C16.2414 3.34783 16.0328 3.36641 15.8298 3.39973C15.8019 3.40485 15.7724 3.4151 15.7565 3.43496C15.7374 3.45931 15.7517 3.49198 15.7708 3.51313C16.3736 4.19287 16.7208 5.02189 16.7208 5.91113ZM19.1405 9.61267C20.1223 9.76707 20.768 10.0823 21.0356 10.5404C21.2617 10.9164 21.2617 11.3527 21.0356 11.7281C20.6263 12.4386 19.3069 12.6667 18.7942 12.7257C18.6883 12.7385 18.6031 12.6648 18.6142 12.5796C18.8762 10.6108 16.7924 9.67738 16.2534 9.46276C16.2303 9.45315 16.2255 9.43841 16.2279 9.42944C16.2295 9.42304 16.239 9.41279 16.2566 9.41086C17.423 9.39357 18.6771 9.5217 19.1405 9.61267ZM6.47657 8.42381C6.62308 8.42061 6.7664 8.41036 6.90654 8.3905C7.00766 8.37641 7.05862 8.28479 7.00129 8.21688C6.44392 7.55699 6.12622 6.76321 6.12622 5.91113C6.12622 5.02188 6.47338 4.19286 7.07614 3.51312C7.09525 3.49198 7.10878 3.4593 7.09047 3.43496C7.07454 3.41574 7.04429 3.40485 7.01721 3.39972C6.81338 3.36641 6.60476 3.34783 6.38659 3.34783C4.38007 3.34783 2.80431 4.86684 3.34177 6.55884C3.70406 7.69794 5.01547 8.45457 6.47657 8.42381ZM6.6187 9.42904C6.62109 9.43865 6.61631 9.45275 6.59402 9.463C6.05417 9.67762 3.97041 10.6111 4.23237 12.5792C4.24352 12.665 4.15911 12.7381 4.05321 12.7259C3.54044 12.667 2.22107 12.4389 1.8118 11.7284C1.58487 11.3523 1.58487 10.9167 1.8118 10.5406C2.07933 10.0825 2.72429 9.76731 3.70605 9.61227C4.17026 9.52194 5.42354 9.39381 6.59083 9.4111C6.60835 9.41303 6.61711 9.42328 6.6187 9.42904Z" fill="#F77E53"/>
</svg>
