<svg width="20" height="19" viewBox="0 0 20 19" fill="none" xmlns="http://www.w3.org/2000/svg">
<path fill-rule="evenodd" clip-rule="evenodd" d="M12.9941 6.67513C12.9941 8.43929 11.5287 9.85386 9.70119 9.85386C7.87365 9.85386 6.40825 8.43929 6.40825 6.67513C6.40825 4.91029 7.87365 3.49707 9.70119 3.49707C11.5287 3.49707 12.9941 4.91029 12.9941 6.67513ZM9.70119 15.51C7.01697 15.51 4.72501 15.1016 4.72501 13.4679C4.72501 11.8336 7.00226 11.4103 9.70119 11.4103C12.3854 11.4103 14.6774 11.8187 14.6774 13.4531C14.6774 15.0867 12.4001 15.51 9.70119 15.51ZM14.4013 6.73244C14.4013 7.63176 14.1218 8.46955 13.6315 9.16602C13.5811 9.2377 13.6259 9.33439 13.7148 9.34927C13.8374 9.36955 13.9642 9.38105 14.0931 9.38443C15.3785 9.41689 16.5322 8.61831 16.8509 7.41606C17.323 5.63027 15.9367 4.02704 14.1716 4.02704C13.9796 4.02704 13.7961 4.04665 13.6175 4.08181C13.593 4.08722 13.567 4.09804 13.553 4.119C13.5362 4.14469 13.5488 4.17918 13.5656 4.20149C14.0959 4.91892 14.4013 5.7939 14.4013 6.73244ZM16.53 10.6392C17.3937 10.8021 17.9618 11.1348 18.1972 11.6183C18.3961 12.0152 18.3961 12.4757 18.1972 12.8719C17.8371 13.6218 16.6764 13.8625 16.2253 13.9248C16.1322 13.9383 16.0572 13.8605 16.067 13.7706C16.2975 11.6927 14.4643 10.7075 13.9901 10.481C13.9698 10.4708 13.9656 10.4553 13.9677 10.4458C13.9691 10.439 13.9775 10.4282 13.9929 10.4262C15.0191 10.4079 16.1224 10.5432 16.53 10.6392ZM5.3892 9.38442C5.51809 9.38104 5.64417 9.37022 5.76746 9.34926C5.85642 9.33438 5.90125 9.23769 5.85081 9.16601C5.36048 8.46955 5.08099 7.63176 5.08099 6.73243C5.08099 5.79389 5.3864 4.91891 5.91666 4.20148C5.93347 4.17917 5.94538 4.14469 5.92927 4.11899C5.91526 4.09871 5.88864 4.08721 5.86482 4.0818C5.6855 4.04664 5.50198 4.02703 5.31005 4.02703C3.54485 4.02703 2.15861 5.63026 2.63143 7.41605C2.95014 8.61831 4.10383 9.41688 5.3892 9.38442ZM5.51424 10.4454C5.51634 10.4555 5.51214 10.4704 5.49252 10.4812C5.0176 10.7077 3.18446 11.6929 3.41491 13.7702C3.42472 13.8608 3.35047 13.9379 3.25731 13.925C2.8062 13.8628 1.64551 13.6221 1.28547 12.8722C1.08583 12.4753 1.08583 12.0155 1.28547 11.6186C1.52083 11.1351 2.08821 10.8024 2.9519 10.6388C3.36028 10.5434 4.46282 10.4082 5.48972 10.4264C5.50513 10.4285 5.51284 10.4393 5.51424 10.4454Z" fill="#F77E53"/>
</svg>
