<svg width="33" height="19" viewBox="0 0 33 19" fill="none" xmlns="http://www.w3.org/2000/svg">
<path fill-rule="evenodd" clip-rule="evenodd" d="M19.0778 8.88557H22.8171C23.3841 8.88557 23.8295 8.62817 23.8295 8.31778C23.8295 7.99983 23.3841 7.75 22.8171 7.75H19.0778C18.5108 7.75 18.0654 7.99983 18.0654 8.31778C18.0654 8.62817 18.5108 8.88557 19.0778 8.88557ZM27.2584 4.94966C28.0818 4.94966 28.6218 5.10864 29.1618 5.45688C29.7017 5.80512 29.7962 6.30477 29.6748 6.75824L28.3923 11.7245C28.1493 12.6791 26.6914 13.3824 24.977 13.3824H10.2493C8.45385 13.3824 6.96893 12.6109 6.82044 11.6117L5.5785 3.35911L3.54011 3.16228C3.00013 3.10929 2.62215 2.81404 2.71665 2.51123C2.81114 2.20159 3.33762 1.99644 3.89109 2.04262L7.11067 2.31439C7.56965 2.36057 7.90713 2.57179 7.94763 2.82918L8.20411 4.52496C8.24461 4.76797 8.59559 4.94966 9.02757 4.94966H27.2584ZM10.033 14.5789C8.89906 14.5789 7.98111 15.0937 7.98111 15.7296C7.98111 16.358 8.89906 16.8728 10.033 16.8728C11.1534 16.8728 12.0714 16.358 12.0714 15.7296C12.0714 15.0937 11.1534 14.5789 10.033 14.5789ZM25.2197 14.5789C24.0858 14.5789 23.1678 15.0937 23.1678 15.7296C23.1678 16.358 24.0858 16.8728 25.2197 16.8728C26.3401 16.8728 27.2581 16.358 27.2581 15.7296C27.2581 15.0937 26.3401 14.5789 25.2197 14.5789Z" fill="#F19203"/>
</svg>
