<svg width="22" height="21" viewBox="0 0 22 21" fill="none" xmlns="http://www.w3.org/2000/svg">
<path fill-rule="evenodd" clip-rule="evenodd" d="M14.6764 7.38866C14.6764 9.33748 13.0284 10.9001 10.9732 10.9001C8.91805 10.9001 7.27012 9.33748 7.27012 7.38866C7.27012 5.43908 8.91805 3.87793 10.9732 3.87793C13.0284 3.87793 14.6764 5.43908 14.6764 7.38866ZM10.9732 17.1483C7.95466 17.1483 5.3772 16.6972 5.3772 14.8925C5.3772 13.0871 7.93812 12.6195 10.9732 12.6195C13.9918 12.6195 16.5693 13.0707 16.5693 14.8761C16.5693 16.6807 14.0084 17.1483 10.9732 17.1483ZM16.2588 7.45197C16.2588 8.44543 15.9445 9.37092 15.3931 10.1403C15.3364 10.2195 15.3868 10.3263 15.4869 10.3427C15.6247 10.3651 15.7673 10.3778 15.9122 10.3816C17.3577 10.4174 18.6551 9.53525 19.0135 8.20715C19.5445 6.23442 17.9856 4.46337 16.0005 4.46337C15.7846 4.46337 15.5782 4.48503 15.3774 4.52388C15.3498 4.52985 15.3207 4.5418 15.3049 4.56496C15.286 4.59334 15.3002 4.63144 15.3191 4.65609C15.9154 5.44862 16.2588 6.41519 16.2588 7.45197ZM18.6528 11.7677C19.624 11.9477 20.2629 12.3152 20.5276 12.8493C20.7513 13.2877 20.7513 13.7964 20.5276 14.2341C20.1227 15.0625 18.8174 15.3284 18.3101 15.3972C18.2053 15.4121 18.121 15.3262 18.1321 15.2269C18.3912 12.9314 16.3297 11.8431 15.7964 11.5929C15.7736 11.5817 15.7689 11.5645 15.7712 11.554C15.7728 11.5466 15.7823 11.5346 15.7996 11.5324C16.9536 11.5122 18.1943 11.6616 18.6528 11.7677ZM6.12412 10.3816C6.26906 10.3778 6.41086 10.3659 6.5495 10.3427C6.64954 10.3263 6.69995 10.2195 6.64324 10.1403C6.09182 9.37091 5.77752 8.44542 5.77752 7.45196C5.77752 6.41518 6.12097 5.44861 6.71728 4.65608C6.73619 4.63143 6.74958 4.59334 6.73146 4.56495C6.71571 4.54254 6.68577 4.52984 6.65899 4.52387C6.45733 4.48503 6.25095 4.46336 6.03511 4.46336C4.05002 4.46336 2.4911 6.23441 3.02282 8.20714C3.38124 9.53524 4.67863 10.4174 6.12412 10.3816ZM6.26474 11.5536C6.2671 11.5648 6.26237 11.5812 6.24032 11.5932C5.70623 11.8434 3.64474 12.9317 3.9039 15.2264C3.91493 15.3265 3.83143 15.4116 3.72666 15.3974C3.21936 15.3287 1.91409 15.0628 1.5092 14.2344C1.28469 13.796 1.28469 13.288 1.5092 12.8495C1.77388 12.3155 2.41194 11.948 3.38321 11.7672C3.84246 11.6619 5.08235 11.5125 6.23716 11.5327C6.25449 11.5349 6.26316 11.5468 6.26474 11.5536Z" fill="#F77E53"/>
</svg>
