<svg width="23" height="20" viewBox="0 0 23 20" fill="none" xmlns="http://www.w3.org/2000/svg">
<path fill-rule="evenodd" clip-rule="evenodd" d="M15.1422 6.82811C15.1422 8.77694 13.4943 10.3396 11.4391 10.3396C9.38387 10.3396 7.73594 8.77694 7.73594 6.82811C7.73594 4.87854 9.38387 3.31738 11.4391 3.31738C13.4943 3.31738 15.1422 4.87854 15.1422 6.82811ZM11.4391 16.5878C8.42048 16.5878 5.84302 16.1366 5.84302 14.332C5.84302 12.5266 8.40394 12.059 11.4391 12.059C14.4577 12.059 17.0351 12.5101 17.0351 14.3155C17.0351 16.1202 14.4742 16.5878 11.4391 16.5878ZM16.7247 6.89143C16.7247 7.88489 16.4104 8.81037 15.859 9.57975C15.8022 9.65892 15.8526 9.76574 15.9527 9.78217C16.0905 9.80458 16.2331 9.81728 16.3781 9.82101C17.8236 9.85687 19.1209 8.97471 19.4794 7.64661C20.0103 5.67388 18.4514 3.90283 16.4663 3.90283C16.2505 3.90283 16.0441 3.92449 15.8432 3.96333C15.8156 3.96931 15.7865 3.98126 15.7707 4.00441C15.7518 4.0328 15.766 4.07089 15.7849 4.09554C16.3812 4.88807 16.7247 5.85464 16.7247 6.89143ZM19.1186 11.2071C20.0899 11.3871 20.7287 11.7546 20.9934 12.2887C21.2171 12.7272 21.2171 13.2359 20.9934 13.6736C20.5885 14.502 19.2832 14.7679 18.7759 14.8366C18.6712 14.8516 18.5869 14.7656 18.5979 14.6663C18.8571 12.3709 16.7956 11.2826 16.2623 11.0323C16.2394 11.0211 16.2347 11.0039 16.2371 10.9935C16.2386 10.986 16.2481 10.9741 16.2654 10.9718C17.4194 10.9517 18.6601 11.1011 19.1186 11.2071ZM6.58994 9.82101C6.73488 9.81727 6.87668 9.80532 7.01532 9.78216C7.11536 9.76573 7.16577 9.65891 7.10906 9.57974C6.55764 8.81036 6.24334 7.88488 6.24334 6.89142C6.24334 5.85463 6.58679 4.88806 7.1831 4.09553C7.20201 4.07088 7.2154 4.03279 7.19728 4.0044C7.18153 3.982 7.15159 3.9693 7.12481 3.96332C6.92315 3.92448 6.71677 3.90282 6.50093 3.90282C4.51584 3.90282 2.95692 5.67387 3.48864 7.6466C3.84706 8.9747 5.14445 9.85686 6.58994 9.82101ZM6.73056 10.993C6.73292 11.0042 6.72819 11.0207 6.70614 11.0326C6.17205 11.2828 4.11056 12.3712 4.36972 14.6658C4.38075 14.7659 4.29725 14.8511 4.19248 14.8369C3.68518 14.7682 2.37991 14.5023 1.97502 13.6739C1.75051 13.2354 1.75051 12.7275 1.97502 12.289C2.2397 11.7549 2.87776 11.3874 3.84903 11.2067C4.30828 11.1013 5.54817 10.9519 6.70298 10.9721C6.72031 10.9743 6.72898 10.9863 6.73056 10.993Z" fill="#F77E53"/>
</svg>
