<svg width="23" height="21" viewBox="0 0 23 21" fill="none" xmlns="http://www.w3.org/2000/svg">
<path fill-rule="evenodd" clip-rule="evenodd" d="M15.485 7.20326C15.485 9.25923 13.6898 10.9078 11.4511 10.9078C9.2123 10.9078 7.41717 9.25923 7.41717 7.20326C7.41717 5.1465 9.2123 3.49951 11.4511 3.49951C13.6898 3.49951 15.485 5.1465 15.485 7.20326ZM11.4511 17.4995C8.16286 17.4995 5.35517 17.0236 5.35517 15.1197C5.35517 13.215 8.14484 12.7217 11.4511 12.7217C14.7393 12.7217 17.547 13.1977 17.547 15.1023C17.547 17.0062 14.7573 17.4995 11.4511 17.4995ZM17.2088 7.27005C17.2088 8.31814 16.8664 9.29451 16.2658 10.1062C16.204 10.1897 16.2589 10.3024 16.3679 10.3197C16.518 10.3434 16.6733 10.3568 16.8312 10.3607C18.4058 10.3985 19.8191 9.46787 20.2096 8.06675C20.7879 5.98556 19.0897 4.11714 16.9273 4.11714C16.6922 4.11714 16.4674 4.14 16.2486 4.18097C16.2186 4.18728 16.1868 4.19989 16.1696 4.22431C16.1491 4.25426 16.1645 4.29445 16.1851 4.32045C16.8347 5.15656 17.2088 6.17627 17.2088 7.27005ZM19.8165 11.823C20.8746 12.0129 21.5705 12.4007 21.8588 12.9641C22.1025 13.4267 22.1025 13.9633 21.8588 14.4251C21.4177 15.299 19.9959 15.5796 19.4433 15.6521C19.3291 15.6678 19.2373 15.5772 19.2493 15.4724C19.5317 13.0508 17.286 11.9026 16.7051 11.6386C16.6802 11.6268 16.6751 11.6087 16.6776 11.5976C16.6794 11.5898 16.6897 11.5772 16.7085 11.5748C17.9656 11.5535 19.3171 11.7111 19.8165 11.823ZM6.16881 10.3607C6.3267 10.3568 6.48116 10.3442 6.63218 10.3197C6.74116 10.3024 6.79608 10.1897 6.73429 10.1062C6.13363 9.2945 5.79125 8.31813 5.79125 7.27005C5.79125 6.17626 6.16538 5.15655 6.81496 4.32044C6.83555 4.29444 6.85014 4.25425 6.8304 4.22431C6.81324 4.20066 6.78063 4.18727 6.75146 4.18096C6.53178 4.13999 6.30696 4.11713 6.07185 4.11713C3.90945 4.11713 2.21128 5.98555 2.79049 8.06674C3.18093 9.46786 4.59421 10.3985 6.16881 10.3607ZM6.32199 11.5972C6.32456 11.609 6.31941 11.6263 6.29538 11.6389C5.7136 11.9029 3.46796 13.0511 3.75028 15.4719C3.76229 15.5775 3.67133 15.6673 3.55721 15.6524C3.00459 15.5799 1.58273 15.2993 1.14167 14.4254C0.897113 13.9628 0.897113 13.427 1.14167 12.9644C1.42999 12.4009 2.12505 12.0132 3.18308 11.8225C3.68334 11.7114 5.03399 11.5538 6.29195 11.5751C6.31083 11.5775 6.32027 11.5901 6.32199 11.5972Z" fill="#F77E53"/>
</svg>
