<svg width="24" height="17" viewBox="0 0 24 17" fill="none" xmlns="http://www.w3.org/2000/svg">
<path fill-rule="evenodd" clip-rule="evenodd" d="M12 14.8924C6.48 14.8924 2 12.0066 2 8.43645C2 4.87275 6.48 1.98047 12 1.98047C17.53 1.98047 22 4.87275 22 8.43645C22 12.0066 17.53 14.8924 12 14.8924ZM15.19 10.8316C15.31 10.8768 15.44 10.9026 15.58 10.9026C15.83 10.9026 16.08 10.8187 16.22 10.6637C16.43 10.4378 16.32 10.1408 15.96 9.99878L12.4 8.63011V5.64745C12.4 5.37629 12.06 5.16325 11.65 5.16325C11.24 5.16325 10.9 5.37629 10.9 5.64745V8.90772C10.9 9.07557 11.04 9.23052 11.27 9.3209L15.19 10.8316Z" fill="#F77E53"/>
</svg>
