<svg width="22" height="25" viewBox="0 0 22 25" fill="none" xmlns="http://www.w3.org/2000/svg">
<path fill-rule="evenodd" clip-rule="evenodd" d="M10.9999 22.9168C5.93992 22.9168 1.83325 18.2606 1.83325 12.5002C1.83325 6.75016 5.93992 2.0835 10.9999 2.0835C16.0691 2.0835 20.1666 6.75016 20.1666 12.5002C20.1666 18.2606 16.0691 22.9168 10.9999 22.9168ZM13.9241 16.3647C14.0341 16.4376 14.1533 16.4793 14.2816 16.4793C14.5108 16.4793 14.7399 16.3439 14.8683 16.0939C15.0608 15.7293 14.9599 15.2501 14.6299 15.021L11.3666 12.8126V8.00013C11.3666 7.56263 11.0549 7.21888 10.6791 7.21888C10.3033 7.21888 9.99159 7.56263 9.99159 8.00013V13.2605C9.99159 13.5314 10.1199 13.7814 10.3308 13.9272L13.9241 16.3647Z" fill="#F77E53"/>
</svg>
