<svg width="22" height="21" viewBox="0 0 22 21" fill="none" xmlns="http://www.w3.org/2000/svg">
<path fill-rule="evenodd" clip-rule="evenodd" d="M12.6413 9.90993H15.0763C15.4455 9.90993 15.7356 9.62216 15.7356 9.27513C15.7356 8.91963 15.4455 8.64032 15.0763 8.64032H12.6413C12.2721 8.64032 11.982 8.91963 11.982 9.27513C11.982 9.62216 12.2721 9.90993 12.6413 9.90993ZM17.9684 5.50941C18.5046 5.50941 18.8563 5.68716 19.2079 6.07651C19.5595 6.46586 19.6211 7.02449 19.5419 7.53149L18.7068 13.0839C18.5486 14.1513 17.5992 14.9376 16.4828 14.9376H6.89217C5.72301 14.9376 4.75604 14.0751 4.65934 12.9578L3.8506 3.73111L2.52321 3.51104C2.17159 3.45179 1.92545 3.12169 1.98698 2.78313C2.04852 2.43695 2.39135 2.20757 2.75177 2.2592L4.84834 2.56306C5.14723 2.61469 5.36699 2.85084 5.39336 3.13862L5.56039 5.03458C5.58676 5.30628 5.81532 5.50941 6.09662 5.50941H17.9684ZM6.75135 16.2754C6.01293 16.2754 5.41516 16.8509 5.41516 17.5619C5.41516 18.2644 6.01293 18.84 6.75135 18.84C7.48097 18.84 8.07874 18.2644 8.07874 17.5619C8.07874 16.8509 7.48097 16.2754 6.75135 16.2754ZM16.6408 16.2754C15.9024 16.2754 15.3047 16.8509 15.3047 17.5619C15.3047 18.2644 15.9024 18.84 16.6408 18.84C17.3705 18.84 17.9682 18.2644 17.9682 17.5619C17.9682 16.8509 17.3705 16.2754 16.6408 16.2754Z" fill="#F19203"/>
</svg>
