<svg width="22" height="25" viewBox="0 0 22 25" fill="none" xmlns="http://www.w3.org/2000/svg">
<path fill-rule="evenodd" clip-rule="evenodd" d="M11 22.9168C5.94004 22.9168 1.83337 18.2606 1.83337 12.5002C1.83337 6.75016 5.94004 2.0835 11 2.0835C16.0692 2.0835 20.1667 6.75016 20.1667 12.5002C20.1667 18.2606 16.0692 22.9168 11 22.9168ZM13.9242 16.3647C14.0342 16.4376 14.1534 16.4793 14.2817 16.4793C14.5109 16.4793 14.74 16.3439 14.8684 16.0939C15.0609 15.7293 14.96 15.2501 14.63 15.021L11.3667 12.8126V8.00013C11.3667 7.56263 11.055 7.21888 10.6792 7.21888C10.3034 7.21888 9.99171 7.56263 9.99171 8.00013V13.2605C9.99171 13.5314 10.12 13.7814 10.3309 13.9272L13.9242 16.3647Z" fill="#F77E53"/>
</svg>
