<svg width="23" height="21" viewBox="0 0 23 21" fill="none" xmlns="http://www.w3.org/2000/svg">
<path fill-rule="evenodd" clip-rule="evenodd" d="M15.1583 7.442C15.1583 9.45134 13.5104 11.0625 11.4552 11.0625C9.39998 11.0625 7.75205 9.45134 7.75205 7.442C7.75205 5.43189 9.39998 3.82227 11.4552 3.82227C13.5104 3.82227 15.1583 5.43189 15.1583 7.442ZM11.4552 17.5047C8.43659 17.5047 5.85913 17.0396 5.85913 15.1789C5.85913 13.3174 8.42005 12.8353 11.4552 12.8353C14.4738 12.8353 17.0512 13.3004 17.0512 15.1619C17.0512 17.0226 14.4903 17.5047 11.4552 17.5047ZM16.7408 7.50728C16.7408 8.53159 16.4265 9.48582 15.8751 10.2791C15.8183 10.3607 15.8688 10.4708 15.9688 10.4878C16.1067 10.5109 16.2492 10.524 16.3942 10.5278C17.8397 10.5648 19.1371 9.65525 19.4955 8.28591C20.0264 6.25193 18.4675 4.42589 16.4824 4.42589C16.2666 4.42589 16.0602 4.44822 15.8593 4.48827C15.8317 4.49443 15.8026 4.50675 15.7868 4.53063C15.7679 4.55989 15.7821 4.59917 15.801 4.62459C16.3973 5.44172 16.7408 6.43831 16.7408 7.50728ZM19.1347 11.957C20.106 12.1426 20.7448 12.5215 21.0095 13.0722C21.2332 13.5243 21.2332 14.0487 21.0095 14.5C20.6046 15.3541 19.2993 15.6283 18.792 15.6992C18.6873 15.7146 18.603 15.626 18.614 15.5236C18.8732 13.1569 16.8117 12.0348 16.2784 11.7768C16.2555 11.7652 16.2508 11.7475 16.2532 11.7367C16.2548 11.729 16.2642 11.7167 16.2815 11.7144C17.4356 11.6936 18.6762 11.8476 19.1347 11.957ZM6.60605 10.5278C6.751 10.524 6.89279 10.5117 7.03143 10.4878C7.13147 10.4708 7.18189 10.3607 7.12517 10.2791C6.57376 9.48581 6.25945 8.53158 6.25945 7.50728C6.25945 6.4383 6.6029 5.44171 7.19922 4.62458C7.21812 4.59916 7.23151 4.55989 7.2134 4.53062C7.19764 4.50751 7.16771 4.49442 7.14092 4.48826C6.93927 4.44821 6.73288 4.42588 6.51704 4.42588C4.53196 4.42588 2.97304 6.25192 3.50475 8.2859C3.86317 9.65524 5.16057 10.5648 6.60605 10.5278ZM6.74667 11.7362C6.74903 11.7478 6.74431 11.7647 6.72225 11.7771C6.18817 12.0351 4.12667 13.1572 4.38584 15.5231C4.39686 15.6263 4.31336 15.7141 4.2086 15.6995C3.7013 15.6286 2.39603 15.3544 1.99113 14.5003C1.76663 14.0482 1.76663 13.5245 1.99113 13.0725C2.25581 12.5218 2.89387 12.1429 3.86515 11.9565C4.32439 11.8479 5.56428 11.6939 6.7191 11.7147C6.73643 11.717 6.74509 11.7293 6.74667 11.7362Z" fill="#F77E53"/>
</svg>
