<svg width="22" height="18" viewBox="0 0 22 18" fill="none" xmlns="http://www.w3.org/2000/svg">
<path fill-rule="evenodd" clip-rule="evenodd" d="M10.8475 16.2498C5.87609 16.2498 1.84131 12.989 1.84131 8.95499C1.84131 4.92824 5.87609 1.66016 10.8475 1.66016C15.828 1.66016 19.8537 4.92824 19.8537 8.95499C19.8537 12.989 15.828 16.2498 10.8475 16.2498ZM13.7205 11.6613C13.8286 11.7124 13.9457 11.7416 14.0717 11.7416C14.2969 11.7416 14.5221 11.6468 14.6481 11.4717C14.8373 11.2164 14.7382 10.8808 14.414 10.7203L11.2078 9.17381V5.8036C11.2078 5.49721 10.9016 5.25648 10.5323 5.25648C10.1631 5.25648 9.85684 5.49721 9.85684 5.8036V9.48749C9.85684 9.67715 9.98293 9.85223 10.1901 9.95436L13.7205 11.6613Z" fill="#F77E53"/>
</svg>
