<svg width="20" height="15" viewBox="0 0 20 15" fill="none" xmlns="http://www.w3.org/2000/svg">
<path fill-rule="evenodd" clip-rule="evenodd" d="M13.4654 5.41444C13.4654 6.76284 11.9044 7.84404 9.95769 7.84404C8.01093 7.84404 6.44995 6.76284 6.44995 5.41444C6.44995 4.06552 8.01093 2.98535 9.95769 2.98535C11.9044 2.98535 13.4654 4.06552 13.4654 5.41444ZM9.95769 12.1672C7.09837 12.1672 4.65691 11.855 4.65691 10.6064C4.65691 9.35722 7.0827 9.03368 9.95769 9.03368C12.817 9.03368 15.2585 9.34585 15.2585 10.595C15.2585 11.8437 12.8327 12.1672 9.95769 12.1672ZM14.9644 5.45825C14.9644 6.14563 14.6667 6.78598 14.1444 7.31831C14.0906 7.37309 14.1384 7.447 14.2332 7.45837C14.3637 7.47387 14.4988 7.48266 14.6361 7.48524C16.0053 7.51005 17.2343 6.89968 17.5738 5.98076C18.0767 4.61582 16.6 3.39042 14.7197 3.39042C14.5152 3.39042 14.3197 3.40541 14.1294 3.43229C14.1033 3.43642 14.0757 3.44469 14.0608 3.46071C14.0429 3.48035 14.0563 3.50671 14.0742 3.52376C14.6391 4.07212 14.9644 4.74089 14.9644 5.45825ZM17.232 8.44429C18.152 8.56885 18.7572 8.82313 19.0079 9.19266C19.2198 9.49604 19.2198 9.848 19.0079 10.1509C18.6244 10.724 17.388 10.908 16.9074 10.9556C16.8082 10.9659 16.7283 10.9065 16.7388 10.8377C16.9843 9.24951 15.0316 8.49649 14.5264 8.32336C14.5048 8.31561 14.5003 8.30372 14.5025 8.29648C14.504 8.29131 14.513 8.28304 14.5294 8.28149C15.6225 8.26754 16.7977 8.37091 17.232 8.44429ZM5.36442 7.48524C5.50171 7.48265 5.63602 7.47438 5.76735 7.45836C5.86211 7.44699 5.90987 7.37309 5.85614 7.3183C5.33382 6.78597 5.0361 6.14562 5.0361 5.45824C5.0361 4.74089 5.36143 4.07211 5.92628 3.52376C5.94419 3.5067 5.95687 3.48034 5.93971 3.4607C5.92479 3.4452 5.89644 3.43641 5.87107 3.43228C5.68005 3.4054 5.48455 3.39042 5.2801 3.39042C3.39975 3.39042 1.92309 4.61581 2.42675 5.98075C2.76626 6.89967 3.9952 7.51005 5.36442 7.48524ZM5.49761 8.29616C5.49985 8.30391 5.49537 8.31528 5.47448 8.32355C4.96858 8.49669 3.01585 9.2497 3.26134 10.8374C3.27179 10.9067 3.1927 10.9656 3.09346 10.9558C2.61292 10.9082 1.37652 10.7242 0.99299 10.1511C0.780332 9.84767 0.780332 9.49623 0.99299 9.19285C1.2437 8.82332 1.8481 8.56904 2.76813 8.44397C3.20314 8.3711 4.37761 8.26773 5.4715 8.28169C5.48791 8.28324 5.49612 8.29151 5.49761 8.29616Z" fill="#F77E53"/>
</svg>
