<svg width="23" height="18" viewBox="0 0 23 18" fill="none" xmlns="http://www.w3.org/2000/svg">
<path fill-rule="evenodd" clip-rule="evenodd" d="M11.6464 15.6503C6.73776 15.6503 2.75391 12.4704 2.75391 8.53655C2.75391 4.60979 6.73776 1.42285 11.6464 1.42285C16.564 1.42285 20.539 4.60979 20.539 8.53655C20.539 12.4704 16.564 15.6503 11.6464 15.6503ZM14.4832 11.1757C14.5899 11.2255 14.7055 11.254 14.83 11.254C15.0523 11.254 15.2746 11.1615 15.3991 10.9908C15.5858 10.7418 15.488 10.4145 15.1679 10.258L12.0021 8.74994V5.46341C12.0021 5.16463 11.6998 4.92988 11.3352 4.92988C10.9706 4.92988 10.6683 5.16463 10.6683 5.46341V9.05583C10.6683 9.24079 10.7928 9.41151 10.9973 9.51111L14.4832 11.1757Z" fill="#F77E53"/>
</svg>
