<svg width="22" height="15" viewBox="0 0 22 15" fill="none" xmlns="http://www.w3.org/2000/svg">
<path fill-rule="evenodd" clip-rule="evenodd" d="M11.0002 13.2009C5.94016 13.2009 1.8335 10.6358 1.8335 7.46229C1.8335 4.29455 5.94016 1.72363 11.0002 1.72363C16.0693 1.72363 20.1668 4.29455 20.1668 7.46229C20.1668 10.6358 16.0693 13.2009 11.0002 13.2009ZM13.9243 9.59131C14.0343 9.63148 14.1535 9.65443 14.2818 9.65443C14.511 9.65443 14.7402 9.57983 14.8685 9.4421C15.061 9.24125 14.9602 8.97727 14.6302 8.85102L11.3668 7.63443V4.98317C11.3668 4.74214 11.0552 4.55277 10.6793 4.55277C10.3035 4.55277 9.99183 4.74214 9.99183 4.98317V7.88119C9.99183 8.03039 10.1202 8.16812 10.331 8.24846L13.9243 9.59131Z" fill="#F77E53"/>
</svg>
