<svg width="33" height="19" viewBox="0 0 33 19" fill="none" xmlns="http://www.w3.org/2000/svg">
<path fill-rule="evenodd" clip-rule="evenodd" d="M19.0778 9.16389H22.8171C23.3841 9.16389 23.8295 8.90649 23.8295 8.5961C23.8295 8.27815 23.3841 8.02832 22.8171 8.02832H19.0778C18.5108 8.02832 18.0654 8.27815 18.0654 8.5961C18.0654 8.90649 18.5108 9.16389 19.0778 9.16389ZM27.2584 5.22798C28.0818 5.22798 28.6218 5.38696 29.1618 5.7352C29.7017 6.08344 29.7962 6.58309 29.6748 7.03656L28.3923 12.0028C28.1493 12.9574 26.6914 13.6607 24.977 13.6607H10.2493C8.45385 13.6607 6.96893 12.8893 6.82044 11.89L5.5785 3.63744L3.54011 3.4406C3.00013 3.38761 2.62215 3.09236 2.71665 2.78955C2.81114 2.47991 3.33762 2.27476 3.89109 2.32094L7.11067 2.59271C7.56965 2.63889 7.90713 2.85011 7.94763 3.1075L8.20411 4.80328C8.24461 5.04629 8.59559 5.22798 9.02757 5.22798H27.2584ZM10.033 14.8572C8.89906 14.8572 7.98111 15.372 7.98111 16.0079C7.98111 16.6363 8.89906 17.1511 10.033 17.1511C11.1534 17.1511 12.0714 16.6363 12.0714 16.0079C12.0714 15.372 11.1534 14.8572 10.033 14.8572ZM25.2197 14.8572C24.0858 14.8572 23.1678 15.372 23.1678 16.0079C23.1678 16.6363 24.0858 17.1511 25.2197 17.1511C26.3401 17.1511 27.2581 16.6363 27.2581 16.0079C27.2581 15.372 26.3401 14.8572 25.2197 14.8572Z" fill="black"/>
</svg>
