<svg width="26" height="29" viewBox="0 0 26 29" fill="none" xmlns="http://www.w3.org/2000/svg">
<path fill-rule="evenodd" clip-rule="evenodd" d="M17.5049 9.94819C17.5049 12.7874 15.4756 15.064 12.9448 15.064C10.414 15.064 8.38476 12.7874 8.38476 9.94819C8.38476 7.1079 10.414 4.8335 12.9448 4.8335C15.4756 4.8335 17.5049 7.1079 17.5049 9.94819ZM12.9448 24.1668C9.22771 24.1668 6.05381 23.5096 6.05381 20.8804C6.05381 18.2501 9.20734 17.5689 12.9448 17.5689C16.6619 17.5689 19.8358 18.2262 19.8358 20.8564C19.8358 23.4856 16.6823 24.1668 12.9448 24.1668ZM19.4536 10.0404C19.4536 11.4878 19.0665 12.8361 18.3875 13.957C18.3177 14.0723 18.3797 14.228 18.5029 14.2519C18.6727 14.2845 18.8483 14.303 19.0268 14.3085C20.8067 14.3607 22.4044 13.0755 22.8457 11.1406C23.4995 8.26662 21.5798 5.68642 19.1354 5.68642C18.8696 5.68642 18.6155 5.71797 18.3681 5.77456C18.3342 5.78327 18.2983 5.80068 18.2789 5.83441C18.2556 5.87577 18.273 5.93127 18.2963 5.96718C19.0306 7.12179 19.4536 8.52997 19.4536 10.0404ZM22.4014 16.3279C23.5975 16.5901 24.3842 17.1255 24.7101 17.9036C24.9856 18.5424 24.9856 19.2835 24.7101 19.9212C24.2115 21.1281 22.6042 21.5155 21.9795 21.6156C21.8505 21.6374 21.7467 21.5122 21.7603 21.3675C22.0794 18.0233 19.5409 16.4378 18.8842 16.0732C18.856 16.0569 18.8502 16.0319 18.8531 16.0166C18.8551 16.0058 18.8667 15.9883 18.888 15.9851C20.3091 15.9557 21.8369 16.1733 22.4014 16.3279ZM6.97357 14.3085C7.15205 14.303 7.32666 14.2856 7.49738 14.2519C7.62057 14.2279 7.68266 14.0723 7.61281 13.957C6.9338 12.8361 6.54676 11.4878 6.54676 10.0404C6.54676 8.52996 6.96969 7.12178 7.704 5.96717C7.72728 5.93125 7.74377 5.87575 7.72146 5.8344C7.70206 5.80175 7.66519 5.78325 7.63221 5.77455C7.38389 5.71796 7.12974 5.6864 6.86396 5.6864C4.41951 5.6864 2.49984 8.2666 3.1546 11.1406C3.59596 13.0755 5.19358 14.3607 6.97357 14.3085ZM7.14672 16.016C7.14963 16.0323 7.14381 16.0562 7.11665 16.0736C6.45898 16.4382 3.92044 18.0237 4.23958 21.3668C4.25316 21.5126 4.15033 21.6367 4.02132 21.616C3.39663 21.5159 1.78931 21.1285 1.29072 19.9216C1.01426 19.2828 1.01426 18.5428 1.29072 17.904C1.61664 17.126 2.40236 16.5905 3.59839 16.3272C4.16391 16.1737 5.69072 15.9561 7.11277 15.9855C7.13411 15.9887 7.14478 16.0062 7.14672 16.016Z" fill="#F77E53"/>
</svg>
