<svg width="26" height="29" viewBox="0 0 26 29" fill="none" xmlns="http://www.w3.org/2000/svg">
<path fill-rule="evenodd" clip-rule="evenodd" d="M17.505 9.94819C17.505 12.7874 15.4757 15.064 12.9449 15.064C10.4142 15.064 8.38488 12.7874 8.38488 9.94819C8.38488 7.1079 10.4142 4.8335 12.9449 4.8335C15.4757 4.8335 17.505 7.1079 17.505 9.94819ZM12.9449 24.1668C9.22783 24.1668 6.05393 23.5096 6.05393 20.8804C6.05393 18.2501 9.20746 17.5689 12.9449 17.5689C16.6621 17.5689 19.836 18.2262 19.836 20.8564C19.836 23.4856 16.6824 24.1668 12.9449 24.1668ZM19.4537 10.0404C19.4537 11.4878 19.0666 12.8361 18.3876 13.957C18.3178 14.0723 18.3799 14.228 18.5031 14.2519C18.6728 14.2845 18.8484 14.303 19.0269 14.3085C20.8069 14.3607 22.4045 13.0755 22.8458 11.1406C23.4996 8.26662 21.58 5.68642 19.1355 5.68642C18.8697 5.68642 18.6156 5.71797 18.3682 5.77456C18.3343 5.78327 18.2984 5.80068 18.279 5.83441C18.2557 5.87577 18.2732 5.93127 18.2964 5.96718C19.0308 7.12179 19.4537 8.52997 19.4537 10.0404ZM22.4016 16.3279C23.5976 16.5901 24.3843 17.1255 24.7102 17.9036C24.9857 18.5424 24.9857 19.2835 24.7102 19.9212C24.2116 21.1281 22.6043 21.5155 21.9796 21.6156C21.8506 21.6374 21.7468 21.5122 21.7604 21.3675C22.0795 18.0233 19.541 16.4378 18.8843 16.0732C18.8561 16.0569 18.8503 16.0319 18.8532 16.0166C18.8552 16.0058 18.8668 15.9883 18.8882 15.9851C20.3092 15.9557 21.837 16.1733 22.4016 16.3279ZM6.97369 14.3085C7.15218 14.303 7.32678 14.2856 7.4975 14.2519C7.6207 14.2279 7.68278 14.0723 7.61294 13.957C6.93392 12.8361 6.54688 11.4878 6.54688 10.0404C6.54688 8.52996 6.96981 7.12178 7.70412 5.96717C7.7274 5.93125 7.74389 5.87575 7.72158 5.8344C7.70218 5.80175 7.66532 5.78325 7.63234 5.77455C7.38401 5.71796 7.12987 5.6864 6.86408 5.6864C4.41963 5.6864 2.49996 8.2666 3.15473 11.1406C3.59608 13.0755 5.19371 14.3607 6.97369 14.3085ZM7.14685 16.016C7.14976 16.0323 7.14394 16.0562 7.11678 16.0736C6.4591 16.4382 3.92056 18.0237 4.2397 21.3668C4.25328 21.5126 4.15046 21.6367 4.02144 21.616C3.39675 21.5159 1.78943 21.1285 1.29084 19.9216C1.01438 19.2828 1.01438 18.5428 1.29084 17.904C1.61676 17.126 2.40248 16.5905 3.59851 16.3272C4.16404 16.1737 5.69085 15.9561 7.1129 15.9855C7.13424 15.9887 7.14491 16.0062 7.14685 16.016Z" fill="#F77E53"/>
</svg>
