<svg width="22" height="18" viewBox="0 0 22 18" fill="none" xmlns="http://www.w3.org/2000/svg">
<path fill-rule="evenodd" clip-rule="evenodd" d="M11.0293 15.6503C6.12058 15.6503 2.13672 12.4704 2.13672 8.53655C2.13672 4.60979 6.12058 1.42285 11.0293 1.42285C15.9468 1.42285 19.9218 4.60979 19.9218 8.53655C19.9218 12.4704 15.9468 15.6503 11.0293 15.6503ZM13.866 11.1757C13.9727 11.2255 14.0883 11.254 14.2128 11.254C14.4351 11.254 14.6574 11.1615 14.7819 10.9908C14.9687 10.7418 14.8708 10.4145 14.5507 10.258L11.385 8.74994V5.46341C11.385 5.16463 11.0826 4.92988 10.718 4.92988C10.3534 4.92988 10.0511 5.16463 10.0511 5.46341V9.05583C10.0511 9.24079 10.1756 9.41151 10.3801 9.51111L13.866 11.1757Z" fill="#F77E53"/>
</svg>
