<svg width="25" height="20" viewBox="0 0 25 20" fill="none" xmlns="http://www.w3.org/2000/svg">
<path fill-rule="evenodd" clip-rule="evenodd" d="M16.8315 6.86087C16.8315 8.81894 14.8803 10.389 12.4469 10.389C10.0134 10.389 8.06219 8.81894 8.06219 6.86087C8.06219 4.90205 10.0134 3.3335 12.4469 3.3335C14.8803 3.3335 16.8315 4.90205 16.8315 6.86087ZM12.4469 16.6668C8.87272 16.6668 5.82089 16.2135 5.82089 14.4003C5.82089 12.5863 8.85313 12.1165 12.4469 12.1165C16.021 12.1165 19.0728 12.5698 19.0728 14.3838C19.0728 16.197 16.0406 16.6668 12.4469 16.6668ZM18.7053 6.92449C18.7053 7.92266 18.3331 8.85254 17.6802 9.62556C17.6131 9.70511 17.6728 9.81243 17.7912 9.82895C17.9544 9.85146 18.1233 9.86422 18.2949 9.86797C20.0064 9.904 21.5426 9.01765 21.967 7.68325C22.5956 5.70116 20.7498 3.92172 18.3993 3.92172C18.1438 3.92172 17.8994 3.94348 17.6616 3.98251C17.6289 3.98851 17.5944 4.00052 17.5758 4.02378C17.5534 4.0523 17.5702 4.09058 17.5925 4.11535C18.2986 4.91163 18.7053 5.88279 18.7053 6.92449ZM21.5398 11.2607C22.6898 11.4415 23.4462 11.8108 23.7596 12.3474C24.0245 12.7879 24.0245 13.299 23.7596 13.7388C23.2802 14.5711 21.7347 14.8383 21.134 14.9074C21.01 14.9224 20.9102 14.8361 20.9233 14.7362C21.2301 12.4299 18.7892 11.3365 18.1578 11.085C18.1307 11.0738 18.1251 11.0565 18.1279 11.046C18.1298 11.0385 18.141 11.0265 18.1615 11.0242C19.5279 11.004 20.9969 11.1541 21.5398 11.2607ZM6.70528 9.86796C6.8769 9.86421 7.04478 9.8522 7.20894 9.82894C7.3274 9.81243 7.38709 9.7051 7.31993 9.62555C6.66704 8.85253 6.29488 7.92265 6.29488 6.92448C6.29488 5.88278 6.70155 4.91162 7.40761 4.11534C7.42999 4.09057 7.44585 4.05229 7.4244 4.02378C7.40574 4.00126 7.3703 3.9885 7.33859 3.9825C7.09981 3.94347 6.85544 3.92171 6.59988 3.92171C4.24945 3.92171 2.40361 5.70116 3.03319 7.68324C3.45758 9.01764 4.99375 9.90399 6.70528 9.86796ZM6.87177 11.0455C6.87457 11.0568 6.86897 11.0733 6.84286 11.0853C6.21048 11.3367 3.76957 12.4302 4.07644 14.7358C4.08949 14.8363 3.99063 14.9219 3.86658 14.9076C3.26591 14.8386 1.72041 14.5714 1.24099 13.7391C0.97517 13.2986 0.97517 12.7882 1.24099 12.3477C1.55438 11.8111 2.30988 11.4418 3.45991 11.2602C4.00368 11.1544 5.47177 11.0043 6.83913 11.0245C6.85965 11.0268 6.86991 11.0388 6.87177 11.0455Z" fill="#F77E53"/>
</svg>
