<svg width="22" height="20" viewBox="0 0 22 20" fill="none" xmlns="http://www.w3.org/2000/svg">
<path fill-rule="evenodd" clip-rule="evenodd" d="M10.6359 18.2472C5.77967 18.2472 1.83838 14.5398 1.83838 9.95318C1.83838 5.37489 5.77967 1.65918 10.6359 1.65918C15.5009 1.65918 19.4334 5.37489 19.4334 9.95318C19.4334 14.5398 15.5009 18.2472 10.6359 18.2472ZM13.4423 13.0302C13.5479 13.0883 13.6622 13.1215 13.7854 13.1215C14.0053 13.1215 14.2253 13.0136 14.3484 12.8146C14.5332 12.5243 14.4364 12.1428 14.1197 11.9603L10.9878 10.202V6.37014C10.9878 6.02179 10.6887 5.74809 10.328 5.74809C9.96728 5.74809 9.66817 6.02179 9.66817 6.37014V10.5586C9.66817 10.7743 9.79133 10.9733 9.99368 11.0894L13.4423 13.0302Z" fill="#F77E53"/>
</svg>
