<svg width="22" height="21" viewBox="0 0 22 21" fill="none" xmlns="http://www.w3.org/2000/svg">
<path fill-rule="evenodd" clip-rule="evenodd" d="M12.9938 10.1052H15.4288C15.798 10.1052 16.0881 9.81747 16.0881 9.47044C16.0881 9.11495 15.798 8.83563 15.4288 8.83563H12.9938C12.6246 8.83563 12.3345 9.11495 12.3345 9.47044C12.3345 9.81747 12.6246 10.1052 12.9938 10.1052ZM18.3209 5.70473C18.8572 5.70473 19.2088 5.88247 19.5604 6.27182C19.9121 6.66117 19.9736 7.2198 19.8945 7.7268L19.0594 13.2792C18.9011 14.3466 17.9517 15.1329 16.8353 15.1329H7.24471C6.07555 15.1329 5.10858 14.2704 5.01188 13.1531L4.20314 3.92642L2.87575 3.70635C2.52413 3.6471 2.27799 3.317 2.33952 2.97844C2.40106 2.63226 2.74389 2.40288 3.10431 2.45451L5.20088 2.75837C5.49976 2.81001 5.71953 3.04615 5.7459 3.33393L5.91293 5.22989C5.9393 5.50159 6.16786 5.70473 6.44916 5.70473H18.3209ZM7.10388 16.4707C6.36547 16.4707 5.7677 17.0462 5.7677 17.7572C5.7677 18.4597 6.36547 19.0353 7.10388 19.0353C7.83351 19.0353 8.43127 18.4597 8.43127 17.7572C8.43127 17.0462 7.83351 16.4707 7.10388 16.4707ZM16.9934 16.4707C16.255 16.4707 15.6572 17.0462 15.6572 17.7572C15.6572 18.4597 16.255 19.0353 16.9934 19.0353C17.723 19.0353 18.3208 18.4597 18.3208 17.7572C18.3208 17.0462 17.723 16.4707 16.9934 16.4707Z" fill="#F19203"/>
</svg>
