<svg width="27" height="21" viewBox="0 0 27 21" fill="none" xmlns="http://www.w3.org/2000/svg">
<path fill-rule="evenodd" clip-rule="evenodd" d="M13.5 19.25C7.29 19.25 2.25 15.3387 2.25 10.5C2.25 5.67 7.29 1.75 13.5 1.75C19.7213 1.75 24.75 5.67 24.75 10.5C24.75 15.3387 19.7213 19.25 13.5 19.25ZM17.0888 13.7462C17.2238 13.8075 17.37 13.8425 17.5275 13.8425C17.8088 13.8425 18.09 13.7287 18.2475 13.5187C18.4838 13.2125 18.36 12.81 17.955 12.6175L13.95 10.7625V6.71997C13.95 6.35247 13.5675 6.06372 13.1063 6.06372C12.645 6.06372 12.2625 6.35247 12.2625 6.71997V11.1387C12.2625 11.3662 12.42 11.5762 12.6788 11.6987L17.0888 13.7462Z" fill="#F77E53"/>
</svg>
