<svg width="22" height="18" viewBox="0 0 22 18" fill="none" xmlns="http://www.w3.org/2000/svg">
<path fill-rule="evenodd" clip-rule="evenodd" d="M12.5895 8.56234H15.0508C15.424 8.56234 15.7172 8.31551 15.7172 8.01787C15.7172 7.71296 15.424 7.4734 15.0508 7.4734H12.5895C12.2163 7.4734 11.923 7.71296 11.923 8.01787C11.923 8.31551 12.2163 8.56234 12.5895 8.56234ZM17.9741 4.78804C18.5162 4.78804 18.8716 4.94049 19.227 5.27444C19.5824 5.60838 19.6446 6.08751 19.5647 6.52236L18.7205 11.2847C18.5606 12.2001 17.6009 12.8745 16.4725 12.8745H6.77826C5.59648 12.8745 4.61906 12.1348 4.52132 11.1765L3.70384 3.2628L2.36211 3.07405C2.00669 3.02323 1.75789 2.74011 1.82009 2.44973C1.88229 2.15281 2.22883 1.95607 2.59314 2.00036L4.71236 2.26098C5.01447 2.30526 5.23661 2.5078 5.26327 2.75463L5.43209 4.38078C5.45875 4.61381 5.68978 4.78804 5.97412 4.78804H17.9741ZM6.63592 14.0219C5.88952 14.0219 5.2853 14.5156 5.2853 15.1254C5.2853 15.7279 5.88952 16.2216 6.63592 16.2216C7.37342 16.2216 7.97764 15.7279 7.97764 15.1254C7.97764 14.5156 7.37342 14.0219 6.63592 14.0219ZM16.6322 14.0219C15.8858 14.0219 15.2816 14.5156 15.2816 15.1254C15.2816 15.7279 15.8858 16.2216 16.6322 16.2216C17.3697 16.2216 17.974 15.7279 17.974 15.1254C17.974 14.5156 17.3697 14.0219 16.6322 14.0219Z" fill="black"/>
</svg>
