<svg width="33" height="21" viewBox="0 0 33 21" fill="none" xmlns="http://www.w3.org/2000/svg">
<path fill-rule="evenodd" clip-rule="evenodd" d="M19.0158 9.67188H22.743C23.3082 9.67188 23.7522 9.37312 23.7522 9.01285C23.7522 8.64379 23.3082 8.35382 22.743 8.35382H19.0158C18.4507 8.35382 18.0066 8.64379 18.0066 9.01285C18.0066 9.37312 18.4507 9.67188 19.0158 9.67188ZM27.1699 5.10344C27.9907 5.10344 28.529 5.28797 29.0672 5.69218C29.6054 6.09638 29.6996 6.67633 29.5785 7.20267L28.3002 12.967C28.058 14.075 26.6048 14.8914 24.8959 14.8914H10.2158C8.42622 14.8914 6.9461 13.996 6.79809 12.8361L5.56017 3.25728L3.52836 3.02881C2.99014 2.9673 2.61338 2.62461 2.70757 2.27312C2.80176 1.91373 3.32653 1.6756 3.87821 1.7292L7.08738 2.04466C7.54488 2.09826 7.88127 2.34342 7.92163 2.64218L8.17729 4.61049C8.21766 4.89255 8.5675 5.10344 8.99809 5.10344H27.1699ZM10.0003 16.2802C8.86999 16.2802 7.955 16.8777 7.955 17.6158C7.955 18.3452 8.86999 18.9427 10.0003 18.9427C11.1171 18.9427 12.0321 18.3452 12.0321 17.6158C12.0321 16.8777 11.1171 16.2802 10.0003 16.2802ZM25.1379 16.2802C24.0076 16.2802 23.0926 16.8777 23.0926 17.6158C23.0926 18.3452 24.0076 18.9427 25.1379 18.9427C26.2547 18.9427 27.1697 18.3452 27.1697 17.6158C27.1697 16.8777 26.2547 16.2802 25.1379 16.2802Z" fill="#F19203"/>
</svg>
