<svg width="24" height="24" viewBox="0 0 24 24" fill="none" xmlns="http://www.w3.org/2000/svg">
<g clip-path="url(#clip0_53_4745)">
<path d="M1.66215 15.9231C2.6976 18.6423 4.7758 20.8494 7.40627 22.0558C7.42048 22.0641 7.43463 22.0708 7.45055 22.0759C8.83933 22.7054 10.3787 23.059 12.0001 23.059C13.3505 23.059 14.6446 22.8148 15.842 22.3698C15.8721 22.3647 15.9001 22.3536 15.9266 22.3363C18.6332 21.3046 20.8323 19.24 22.0416 16.626C22.0649 16.5975 22.0797 16.5635 22.0869 16.5259C22.7098 15.1432 23.0595 13.612 23.0595 11.9998C23.0595 5.90166 18.0983 0.94043 12.0001 0.94043C10.6358 0.94043 9.3292 1.19039 8.1215 1.64416C8.11929 1.64499 8.11719 1.64577 8.11504 1.64671C5.37943 2.67668 3.15817 4.76113 1.94561 7.40222C1.93809 7.41537 1.93179 7.42853 1.92704 7.44329C1.29544 8.83384 0.940674 10.3757 0.940674 11.9998C0.940674 13.3545 1.18666 14.6525 1.6344 15.853C1.63949 15.8779 1.64866 15.9009 1.66215 15.9231ZM7.29157 21.5001C4.94241 20.3311 3.08686 18.3168 2.12283 15.8573L7.29157 10.6832V21.5001ZM12.0001 22.6062C10.4869 22.6062 9.04806 22.2855 7.7444 21.712V14.4014L15.3843 22.0493C14.3207 22.4085 13.1833 22.6062 12.0001 22.6062ZM15.8536 21.8785L10.6916 16.711H21.4991C20.3292 19.06 18.3141 20.9153 15.8536 21.8785ZM22.6067 11.9998C22.6067 13.514 22.2855 14.9538 21.7113 16.2582H14.4067L22.0477 8.60936C22.4082 9.67477 22.6067 10.8143 22.6067 11.9998ZM16.7084 2.49924C19.057 3.66791 20.9122 5.68144 21.8764 8.14011L16.7084 13.3135V2.49924ZM13.8019 16.223C13.7915 16.2334 13.7865 16.2464 13.7786 16.2582H10.2832C10.2702 16.2582 10.259 16.2635 10.2466 16.2656L7.77956 13.7959C7.76917 13.7855 7.75612 13.7805 7.7444 13.7726V10.2858C7.7444 10.2693 7.73838 10.2548 7.73501 10.2393L10.198 7.77379C10.2084 7.7634 10.2135 7.75035 10.2214 7.73863H13.7165C13.7296 7.73863 13.741 7.73333 13.7535 7.73122L16.2204 10.2007C16.2308 10.2111 16.2438 10.2161 16.2555 10.224V13.7108C16.2555 13.7274 16.2616 13.7419 16.2649 13.7574L13.8019 16.223ZM12.0001 1.39326C13.5131 1.39326 14.952 1.71392 16.2555 2.28731V9.59517L8.61767 1.94946C9.68076 1.59071 10.8175 1.39326 12.0001 1.39326ZM8.14826 2.12026L13.3085 7.2858H2.50236C3.67275 4.93741 5.68798 3.08286 8.14826 2.12026ZM2.29015 7.73863H9.5932L1.95169 15.3879C1.59167 14.3232 1.3935 13.1845 1.3935 11.9998C1.3935 10.4846 1.71516 9.04372 2.29015 7.73863Z" fill="white"/>
</g>
<defs>
<clipPath id="clip0_53_4745">
<rect width="24" height="24" fill="white"/>
</clipPath>
</defs>
</svg>
