<svg width="24" height="24" viewBox="0 0 24 24" fill="none" xmlns="http://www.w3.org/2000/svg">
<g clip-path="url(#clip0_53_4958)">
<path d="M1.66203 15.9231C2.69748 18.6423 4.77568 20.8494 7.40615 22.0558C7.42036 22.0641 7.43451 22.0708 7.45043 22.0759C8.83921 22.7054 10.3786 23.059 12 23.059C13.3504 23.059 14.6445 22.8148 15.8419 22.3698C15.872 22.3647 15.9 22.3536 15.9265 22.3363C18.6331 21.3046 20.8322 19.24 22.0414 16.626C22.0648 16.5975 22.0796 16.5635 22.0868 16.5259C22.7097 15.1432 23.0594 13.612 23.0594 11.9998C23.0594 5.90166 18.0981 0.94043 12 0.94043C10.6357 0.94043 9.32908 1.19039 8.12138 1.64416C8.11917 1.64499 8.11707 1.64577 8.11491 1.64671C5.3793 2.67668 3.15805 4.76113 1.94549 7.40222C1.93797 7.41537 1.93167 7.42853 1.92692 7.44329C1.29532 8.83384 0.940552 10.3757 0.940552 11.9998C0.940552 13.3545 1.18653 14.6525 1.63428 15.853C1.63937 15.8779 1.64854 15.9009 1.66203 15.9231ZM7.29145 21.5001C4.94228 20.3311 3.08674 18.3168 2.12271 15.8573L7.29145 10.6832V21.5001ZM12 22.6062C10.4868 22.6062 9.04794 22.2855 7.74428 21.712V14.4014L15.3842 22.0493C14.3205 22.4085 13.1832 22.6062 12 22.6062ZM15.8535 21.8785L10.6914 16.711H21.499C20.3291 19.06 18.3139 20.9153 15.8535 21.8785ZM22.6065 11.9998C22.6065 13.514 22.2854 14.9538 21.7112 16.2582H14.4066L22.0476 8.60936C22.4081 9.67477 22.6065 10.8143 22.6065 11.9998ZM16.7082 2.49924C19.0569 3.66791 20.9121 5.68144 21.8763 8.14011L16.7082 13.3135V2.49924ZM13.8018 16.223C13.7914 16.2334 13.7863 16.2464 13.7784 16.2582H10.283C10.2701 16.2582 10.2588 16.2635 10.2465 16.2656L7.77944 13.7959C7.76905 13.7855 7.756 13.7805 7.74428 13.7726V10.2858C7.74428 10.2693 7.73826 10.2548 7.73488 10.2393L10.1979 7.77379C10.2083 7.7634 10.2133 7.75035 10.2212 7.73863H13.7164C13.7295 7.73863 13.7409 7.73333 13.7533 7.73122L16.2203 10.2007C16.2306 10.2111 16.2437 10.2161 16.2554 10.224V13.7108C16.2554 13.7274 16.2614 13.7419 16.2648 13.7574L13.8018 16.223ZM12 1.39326C13.513 1.39326 14.9519 1.71392 16.2554 2.28731V9.59517L8.61755 1.94946C9.68064 1.59071 10.8174 1.39326 12 1.39326ZM8.14814 2.12026L13.3084 7.2858H2.50224C3.67262 4.93741 5.68786 3.08286 8.14814 2.12026ZM2.29003 7.73863H9.59308L1.95157 15.3879C1.59155 14.3232 1.39338 13.1845 1.39338 11.9998C1.39338 10.4846 1.71504 9.04372 2.29003 7.73863Z" fill="white"/>
</g>
<defs>
<clipPath id="clip0_53_4958">
<rect width="24" height="24" fill="white"/>
</clipPath>
</defs>
</svg>
