<svg width="24" height="24" viewBox="0 0 24 24" fill="none" xmlns="http://www.w3.org/2000/svg">
<g clip-path="url(#clip0_53_3475)">
<path d="M1.66191 15.9231C2.69736 18.6423 4.77556 20.8494 7.40603 22.0558C7.42024 22.0641 7.43439 22.0708 7.45031 22.0759C8.83909 22.7054 10.3784 23.059 11.9998 23.059C13.3503 23.059 14.6444 22.8148 15.8418 22.3698C15.8719 22.3647 15.8999 22.3536 15.9264 22.3363C18.633 21.3046 20.8321 19.24 22.0413 16.626C22.0647 16.5975 22.0795 16.5635 22.0867 16.5259C22.7096 15.1432 23.0592 13.612 23.0592 11.9998C23.0592 5.90166 18.098 0.94043 11.9998 0.94043C10.6355 0.94043 9.32895 1.19039 8.12126 1.64416C8.11905 1.64499 8.11695 1.64577 8.11479 1.64671C5.37918 2.67668 3.15793 4.76113 1.94537 7.40222C1.93785 7.41537 1.93155 7.42853 1.92679 7.44329C1.2952 8.83384 0.94043 10.3757 0.94043 11.9998C0.94043 13.3545 1.18641 14.6525 1.63416 15.853C1.63924 15.8779 1.64842 15.9009 1.66191 15.9231ZM7.29133 21.5001C4.94216 20.3311 3.08662 18.3168 2.12259 15.8573L7.29133 10.6832V21.5001ZM11.9998 22.6062C10.4867 22.6062 9.04781 22.2855 7.74416 21.712V14.4014L15.3841 22.0493C14.3204 22.4085 13.1831 22.6062 11.9998 22.6062ZM15.8534 21.8785L10.6913 16.711H21.4989C20.329 19.06 18.3138 20.9153 15.8534 21.8785ZM22.6064 11.9998C22.6064 13.514 22.2852 14.9538 21.711 16.2582H14.4065L22.0474 8.60936C22.408 9.67477 22.6064 10.8143 22.6064 11.9998ZM16.7081 2.49924C19.0567 3.66791 20.9119 5.68144 21.8762 8.14011L16.7081 13.3135V2.49924ZM13.8016 16.223C13.7913 16.2334 13.7862 16.2464 13.7783 16.2582H10.2829C10.2699 16.2582 10.2587 16.2635 10.2463 16.2656L7.77932 13.7959C7.76892 13.7855 7.75588 13.7805 7.74416 13.7726V10.2858C7.74416 10.2693 7.73813 10.2548 7.73476 10.2393L10.1978 7.77379C10.2082 7.7634 10.2132 7.75035 10.2211 7.73863H13.7163C13.7294 7.73863 13.7407 7.73333 13.7532 7.73122L16.2201 10.2007C16.2305 10.2111 16.2436 10.2161 16.2553 10.224V13.7108C16.2553 13.7274 16.2613 13.7419 16.2647 13.7574L13.8016 16.223ZM11.9998 1.39326C13.5129 1.39326 14.9517 1.71392 16.2553 2.28731V9.59517L8.61743 1.94946C9.68052 1.59071 10.8172 1.39326 11.9998 1.39326ZM8.14801 2.12026L13.3082 7.2858H2.50212C3.6725 4.93741 5.68774 3.08286 8.14801 2.12026ZM2.28991 7.73863H9.59296L1.95145 15.3879C1.59143 14.3232 1.39326 13.1845 1.39326 11.9998C1.39326 10.4846 1.71492 9.04372 2.28991 7.73863Z" fill="white"/>
</g>
<defs>
<clipPath id="clip0_53_3475">
<rect width="24" height="24" fill="white"/>
</clipPath>
</defs>
</svg>
