<svg width="45" height="36" viewBox="0 0 45 36" fill="none" xmlns="http://www.w3.org/2000/svg">
<path opacity="0.8" d="M29.7922 21H15.0971C14.6099 21 14.1427 21.158 13.7982 21.4393C13.4537 21.7206 13.2602 22.1022 13.2602 22.5C13.2602 22.8978 13.4537 23.2794 13.7982 23.5607C14.1427 23.842 14.6099 24 15.0971 24H29.7922C30.2794 24 30.7466 23.842 31.0911 23.5607C31.4356 23.2794 31.6291 22.8978 31.6291 22.5C31.6291 22.1022 31.4356 21.7206 31.0911 21.4393C30.7466 21.158 30.2794 21 29.7922 21ZM29.7922 15H18.7708C18.2837 15 17.8164 15.158 17.472 15.4393C17.1275 15.7206 16.9339 16.1022 16.9339 16.5C16.9339 16.8978 17.1275 17.2794 17.472 17.5607C17.8164 17.842 18.2837 18 18.7708 18H29.7922C30.2794 18 30.7466 17.842 31.0911 17.5607C31.4356 17.2794 31.6291 16.8978 31.6291 16.5C31.6291 16.1022 31.4356 15.7206 31.0911 15.4393C30.7466 15.158 30.2794 15 29.7922 15ZM37.1398 6H31.6291V4.5C31.6291 4.10218 31.4356 3.72064 31.0911 3.43934C30.7466 3.15804 30.2794 3 29.7922 3C29.305 3 28.8378 3.15804 28.4933 3.43934C28.1488 3.72064 27.9553 4.10218 27.9553 4.5V6H24.2815V4.5C24.2815 4.10218 24.088 3.72064 23.7435 3.43934C23.399 3.15804 22.9318 3 22.4446 3C21.9574 3 21.4902 3.15804 21.1457 3.43934C20.8013 3.72064 20.6077 4.10218 20.6077 4.5V6H16.9339V4.5C16.9339 4.10218 16.7404 3.72064 16.3959 3.43934C16.0514 3.15804 15.5842 3 15.0971 3C14.6099 3 14.1427 3.15804 13.7982 3.43934C13.4537 3.72064 13.2602 4.10218 13.2602 4.5V6H7.74949C7.26232 6 6.79509 6.15804 6.45061 6.43934C6.10613 6.72064 5.9126 7.10218 5.9126 7.5V28.5C5.9126 29.6935 6.49319 30.8381 7.52664 31.682C8.56009 32.5259 9.96175 33 11.4233 33H33.466C34.9275 33 36.3292 32.5259 37.3626 31.682C38.3961 30.8381 38.9766 29.6935 38.9766 28.5V7.5C38.9766 7.10218 38.7831 6.72064 38.4386 6.43934C38.0942 6.15804 37.6269 6 37.1398 6ZM35.3029 28.5C35.3029 28.8978 35.1093 29.2794 34.7649 29.5607C34.4204 29.842 33.9531 30 33.466 30H11.4233C10.9361 30 10.4689 29.842 10.1244 29.5607C9.77991 29.2794 9.58638 28.8978 9.58638 28.5V9H13.2602V10.5C13.2602 10.8978 13.4537 11.2794 13.7982 11.5607C14.1427 11.842 14.6099 12 15.0971 12C15.5842 12 16.0514 11.842 16.3959 11.5607C16.7404 11.2794 16.9339 10.8978 16.9339 10.5V9H20.6077V10.5C20.6077 10.8978 20.8013 11.2794 21.1457 11.5607C21.4902 11.842 21.9574 12 22.4446 12C22.9318 12 23.399 11.842 23.7435 11.5607C24.088 11.2794 24.2815 10.8978 24.2815 10.5V9H27.9553V10.5C27.9553 10.8978 28.1488 11.2794 28.4933 11.5607C28.8378 11.842 29.305 12 29.7922 12C30.2794 12 30.7466 11.842 31.0911 11.5607C31.4356 11.2794 31.6291 10.8978 31.6291 10.5V9H35.3029V28.5Z" fill="#101130"/>
</svg>
