<svg width="45" height="36" viewBox="0 0 45 36" fill="none" xmlns="http://www.w3.org/2000/svg">
<path opacity="0.8" d="M29.7927 21H15.0975C14.6104 21 14.1432 21.158 13.7987 21.4393C13.4542 21.7206 13.2607 22.1022 13.2607 22.5C13.2607 22.8978 13.4542 23.2794 13.7987 23.5607C14.1432 23.842 14.6104 24 15.0975 24H29.7927C30.2799 24 30.7471 23.842 31.0916 23.5607C31.436 23.2794 31.6296 22.8978 31.6296 22.5C31.6296 22.1022 31.436 21.7206 31.0916 21.4393C30.7471 21.158 30.2799 21 29.7927 21ZM29.7927 15H18.7713C18.2842 15 17.8169 15.158 17.4724 15.4393C17.128 15.7206 16.9344 16.1022 16.9344 16.5C16.9344 16.8978 17.128 17.2794 17.4724 17.5607C17.8169 17.842 18.2842 18 18.7713 18H29.7927C30.2799 18 30.7471 17.842 31.0916 17.5607C31.436 17.2794 31.6296 16.8978 31.6296 16.5C31.6296 16.1022 31.436 15.7206 31.0916 15.4393C30.7471 15.158 30.2799 15 29.7927 15ZM37.1402 6H31.6296V4.5C31.6296 4.10218 31.436 3.72064 31.0916 3.43934C30.7471 3.15804 30.2799 3 29.7927 3C29.3055 3 28.8383 3.15804 28.4938 3.43934C28.1493 3.72064 27.9558 4.10218 27.9558 4.5V6H24.282V4.5C24.282 4.10218 24.0885 3.72064 23.744 3.43934C23.3995 3.15804 22.9323 3 22.4451 3C21.9579 3 21.4907 3.15804 21.1462 3.43934C20.8017 3.72064 20.6082 4.10218 20.6082 4.5V6H16.9344V4.5C16.9344 4.10218 16.7409 3.72064 16.3964 3.43934C16.0519 3.15804 15.5847 3 15.0975 3C14.6104 3 14.1432 3.15804 13.7987 3.43934C13.4542 3.72064 13.2607 4.10218 13.2607 4.5V6H7.74998C7.2628 6 6.79558 6.15804 6.4511 6.43934C6.10661 6.72064 5.91309 7.10218 5.91309 7.5V28.5C5.91309 29.6935 6.49367 30.8381 7.52713 31.682C8.56058 32.5259 9.96224 33 11.4238 33H33.4665C34.928 33 36.3296 32.5259 37.3631 31.682C38.3965 30.8381 38.9771 29.6935 38.9771 28.5V7.5C38.9771 7.10218 38.7836 6.72064 38.4391 6.43934C38.0946 6.15804 37.6274 6 37.1402 6ZM35.3034 28.5C35.3034 28.8978 35.1098 29.2794 34.7653 29.5607C34.4209 29.842 33.9536 30 33.4665 30H11.4238C10.9366 30 10.4694 29.842 10.1249 29.5607C9.7804 29.2794 9.58687 28.8978 9.58687 28.5V9H13.2607V10.5C13.2607 10.8978 13.4542 11.2794 13.7987 11.5607C14.1432 11.842 14.6104 12 15.0975 12C15.5847 12 16.0519 11.842 16.3964 11.5607C16.7409 11.2794 16.9344 10.8978 16.9344 10.5V9H20.6082V10.5C20.6082 10.8978 20.8017 11.2794 21.1462 11.5607C21.4907 11.842 21.9579 12 22.4451 12C22.9323 12 23.3995 11.842 23.744 11.5607C24.0885 11.2794 24.282 10.8978 24.282 10.5V9H27.9558V10.5C27.9558 10.8978 28.1493 11.2794 28.4938 11.5607C28.8383 11.842 29.3055 12 29.7927 12C30.2799 12 30.7471 11.842 31.0916 11.5607C31.436 11.2794 31.6296 10.8978 31.6296 10.5V9H35.3034V28.5Z" fill="#101130"/>
</svg>
