<svg width="45" height="36" viewBox="0 0 45 36" fill="none" xmlns="http://www.w3.org/2000/svg">
<path opacity="0.8" d="M29.7927 21.1597H15.0975C14.6104 21.1597 14.1432 21.3149 13.7987 21.5911C13.4542 21.8673 13.2607 22.2419 13.2607 22.6326C13.2607 23.0232 13.4542 23.3978 13.7987 23.674C14.1432 23.9502 14.6104 24.1054 15.0975 24.1054H29.7927C30.2799 24.1054 30.7471 23.9502 31.0916 23.674C31.436 23.3978 31.6296 23.0232 31.6296 22.6326C31.6296 22.2419 31.436 21.8673 31.0916 21.5911C30.7471 21.3149 30.2799 21.1597 29.7927 21.1597ZM29.7927 15.2682H18.7713C18.2842 15.2682 17.8169 15.4234 17.4724 15.6996C17.128 15.9759 16.9344 16.3505 16.9344 16.7411C16.9344 17.1317 17.128 17.5064 17.4724 17.7826C17.8169 18.0588 18.2842 18.214 18.7713 18.214H29.7927C30.2799 18.214 30.7471 18.0588 31.0916 17.7826C31.436 17.5064 31.6296 17.1317 31.6296 16.7411C31.6296 16.3505 31.436 15.9759 31.0916 15.6996C30.7471 15.4234 30.2799 15.2682 29.7927 15.2682ZM37.1402 6.43108H31.6296V4.95821C31.6296 4.56759 31.436 4.19296 31.0916 3.91674C30.7471 3.64053 30.2799 3.48535 29.7927 3.48535C29.3055 3.48535 28.8383 3.64053 28.4938 3.91674C28.1493 4.19296 27.9558 4.56759 27.9558 4.95821V6.43108H24.282V4.95821C24.282 4.56759 24.0885 4.19296 23.744 3.91674C23.3995 3.64053 22.9323 3.48535 22.4451 3.48535C21.9579 3.48535 21.4907 3.64053 21.1462 3.91674C20.8017 4.19296 20.6082 4.56759 20.6082 4.95821V6.43108H16.9344V4.95821C16.9344 4.56759 16.7409 4.19296 16.3964 3.91674C16.0519 3.64053 15.5847 3.48535 15.0975 3.48535C14.6104 3.48535 14.1432 3.64053 13.7987 3.91674C13.4542 4.19296 13.2607 4.56759 13.2607 4.95821V6.43108H7.74998C7.2628 6.43108 6.79558 6.58625 6.4511 6.86247C6.10661 7.13868 5.91309 7.51331 5.91309 7.90394V28.524C5.91309 29.6959 6.49367 30.8198 7.52713 31.6484C8.56058 32.4771 9.96224 32.9426 11.4238 32.9426H33.4665C34.928 32.9426 36.3296 32.4771 37.3631 31.6484C38.3965 30.8198 38.9771 29.6959 38.9771 28.524V7.90394C38.9771 7.51331 38.7836 7.13868 38.4391 6.86247C38.0946 6.58625 37.6274 6.43108 37.1402 6.43108ZM35.3034 28.524C35.3034 28.9146 35.1098 29.2893 34.7653 29.5655C34.4209 29.8417 33.9536 29.9969 33.4665 29.9969H11.4238C10.9366 29.9969 10.4694 29.8417 10.1249 29.5655C9.7804 29.2893 9.58687 28.9146 9.58687 28.524V9.3768H13.2607V10.8497C13.2607 11.2403 13.4542 11.6149 13.7987 11.8911C14.1432 12.1673 14.6104 12.3225 15.0975 12.3225C15.5847 12.3225 16.0519 12.1673 16.3964 11.8911C16.7409 11.6149 16.9344 11.2403 16.9344 10.8497V9.3768H20.6082V10.8497C20.6082 11.2403 20.8017 11.6149 21.1462 11.8911C21.4907 12.1673 21.9579 12.3225 22.4451 12.3225C22.9323 12.3225 23.3995 12.1673 23.744 11.8911C24.0885 11.6149 24.282 11.2403 24.282 10.8497V9.3768H27.9558V10.8497C27.9558 11.2403 28.1493 11.6149 28.4938 11.8911C28.8383 12.1673 29.3055 12.3225 29.7927 12.3225C30.2799 12.3225 30.7471 12.1673 31.0916 11.8911C31.436 11.6149 31.6296 11.2403 31.6296 10.8497V9.3768H35.3034V28.524Z" fill="#101130"/>
</svg>
