<svg width="45" height="36" viewBox="0 0 45 36" fill="none" xmlns="http://www.w3.org/2000/svg">
<path opacity="0.8" d="M39.7747 3.08969C38.458 2.90449 37.1247 2.80916 35.7886 2.80469C31.2301 2.80164 26.7667 3.86905 22.9304 5.87969C19.0842 3.89545 14.6215 2.85424 10.0722 2.87969C8.73609 2.88416 7.40279 2.97949 6.0861 3.16469C5.65481 3.22541 5.26424 3.40988 4.98473 3.68488C4.70521 3.95988 4.55512 4.30735 4.56148 4.66469V22.6647C4.55755 22.8851 4.61315 23.1035 4.72432 23.3044C4.8355 23.5052 4.99952 23.6836 5.20471 23.8268C5.40991 23.97 5.65123 24.0746 5.91152 24.1329C6.1718 24.1913 6.44465 24.2022 6.71064 24.1647C9.34295 23.7925 12.0398 23.8543 14.6425 24.3463C17.2451 24.8383 19.7008 25.7507 21.865 27.0297L22.0854 27.1347H22.2875C22.4912 27.204 22.7097 27.2397 22.9304 27.2397C23.1511 27.2397 23.3696 27.204 23.5733 27.1347H23.7754L23.9958 27.0297C26.1449 25.7221 28.5936 24.7802 31.1967 24.2597C33.7998 23.7392 36.5044 23.6508 39.1501 23.9997C39.4161 24.0372 39.689 24.0263 39.9493 23.9679C40.2096 23.9096 40.4509 23.805 40.6561 23.6618C40.8613 23.5186 41.0253 23.3402 41.1365 23.1394C41.2476 22.9385 41.3032 22.7201 41.2993 22.4997V4.49969C41.2802 4.15792 41.1186 3.83176 40.8413 3.5753C40.564 3.31884 40.1876 3.1475 39.7747 3.08969ZM21.0935 23.0247C17.695 21.5647 13.9122 20.8028 10.0722 20.8047C9.46598 20.8047 8.85981 20.8047 8.23526 20.8047V5.80469C8.84705 5.7759 9.46037 5.7759 10.0722 5.80469C13.991 5.80116 17.8242 6.74023 21.0935 8.50469V23.0247ZM37.6255 20.8647C37.001 20.8647 36.3948 20.8647 35.7886 20.8647C31.9486 20.8628 28.1658 21.6247 24.7673 23.0847V8.50469C28.0366 6.74023 31.8698 5.80116 35.7886 5.80469C36.4004 5.7759 37.0137 5.7759 37.6255 5.80469V20.8647ZM39.7747 27.0897C38.458 26.9045 37.1247 26.8092 35.7886 26.8047C31.2301 26.8016 26.7667 27.8691 22.9304 29.8797C19.0941 27.8691 14.6307 26.8016 10.0722 26.8047C8.73609 26.8092 7.40279 26.9045 6.0861 27.0897C5.84699 27.1207 5.61774 27.19 5.41153 27.2935C5.20532 27.3971 5.02622 27.533 4.88453 27.6933C4.74284 27.8536 4.64136 28.0352 4.58592 28.2277C4.53048 28.4201 4.52217 28.6196 4.56148 28.8147C4.65483 29.2042 4.93343 29.5477 5.33626 29.7698C5.7391 29.9919 6.23331 30.0746 6.71064 29.9997C9.34295 29.6275 12.0398 29.6893 14.6425 30.1813C17.2451 30.6733 19.7008 31.5857 21.865 32.8647C22.1761 33.0456 22.5485 33.1428 22.9304 33.1428C23.3123 33.1428 23.6847 33.0456 23.9958 32.8647C26.16 31.5857 28.6157 30.6733 31.2183 30.1813C33.821 29.6893 36.5178 29.6275 39.1501 29.9997C39.6275 30.0746 40.1217 29.9919 40.5245 29.7698C40.9274 29.5477 41.206 29.2042 41.2993 28.8147C41.3386 28.6196 41.3303 28.4201 41.2749 28.2277C41.2194 28.0352 41.118 27.8536 40.9763 27.6933C40.8346 27.533 40.6555 27.3971 40.4493 27.2935C40.2431 27.19 40.0138 27.1207 39.7747 27.0897Z" fill="#101130"/>
</svg>
