<svg width="45" height="37" viewBox="0 0 45 37" fill="none" xmlns="http://www.w3.org/2000/svg">
<path opacity="0.8" d="M39.3763 3.74274C38.0596 3.56089 36.7263 3.46729 35.3902 3.4629C30.8317 3.4599 26.3683 4.508 22.532 6.48226C18.6858 4.53392 14.2231 3.51155 9.67372 3.53654C8.33765 3.54093 7.00436 3.63453 5.68766 3.81638C5.25637 3.876 4.8658 4.05714 4.58629 4.32716C4.30677 4.59719 4.15668 4.93836 4.16304 5.28925V22.9636C4.15911 23.18 4.21471 23.3944 4.32588 23.5917C4.43706 23.7889 4.60108 23.9641 4.80627 24.1047C5.01147 24.2453 5.25279 24.3479 5.51308 24.4053C5.77336 24.4626 6.04621 24.4733 6.31221 24.4364C8.94451 24.071 11.6414 24.1316 14.244 24.6148C16.8467 25.0979 19.3024 25.9938 21.4666 27.2496L21.687 27.3527H21.889C22.0928 27.4208 22.3113 27.4558 22.532 27.4558C22.7527 27.4558 22.9712 27.4208 23.1749 27.3527H23.3769L23.5974 27.2496C25.7464 25.9657 28.1951 25.0408 30.7982 24.5298C33.4014 24.0187 36.106 23.9319 38.7517 24.2744C39.0177 24.3112 39.2906 24.3006 39.5508 24.2433C39.8111 24.1859 40.0524 24.0833 40.2576 23.9427C40.4628 23.802 40.6269 23.6269 40.738 23.4297C40.8492 23.2324 40.9048 23.018 40.9009 22.8016V5.12723C40.8818 4.79164 40.7201 4.47138 40.4428 4.21956C40.1655 3.96774 39.7892 3.7995 39.3763 3.74274ZM20.6951 23.3171C17.2966 21.8835 13.5138 21.1353 9.67372 21.1372C9.06754 21.1372 8.46137 21.1372 7.83683 21.1372V6.40862C8.44862 6.38035 9.06193 6.38035 9.67372 6.40862C13.5925 6.40515 17.4258 7.32723 20.6951 9.05977V23.3171ZM37.2271 21.1961C36.6025 21.1961 35.9964 21.1961 35.3902 21.1961C31.5501 21.1943 27.7673 21.9424 24.3689 23.376V9.05977C27.6381 7.32723 31.4714 6.40515 35.3902 6.40862C36.002 6.38035 36.6153 6.38035 37.2271 6.40862V21.1961ZM39.3763 27.3085C38.0596 27.1267 36.7263 27.0331 35.3902 27.0287C30.8317 27.0257 26.3683 28.0738 22.532 30.048C18.6956 28.0738 14.2322 27.0257 9.67372 27.0287C8.33765 27.0331 7.00436 27.1267 5.68766 27.3085C5.44855 27.339 5.2193 27.407 5.01309 27.5087C4.80688 27.6104 4.62778 27.7438 4.48609 27.9012C4.3444 28.0586 4.24292 28.2369 4.18748 28.4259C4.13204 28.6149 4.12374 28.8108 4.16304 29.0023C4.25639 29.3848 4.535 29.722 4.93783 29.9401C5.34066 30.1582 5.83487 30.2394 6.31221 30.1659C8.94451 29.8004 11.6414 29.8611 14.244 30.3442C16.8467 30.8273 19.3024 31.7232 21.4666 32.979C21.7777 33.1566 22.1501 33.2521 22.532 33.2521C22.9139 33.2521 23.2863 33.1566 23.5974 32.979C25.7615 31.7232 28.2173 30.8273 30.8199 30.3442C33.4225 29.8611 36.1194 29.8004 38.7517 30.1659C39.229 30.2394 39.7233 30.1582 40.1261 29.9401C40.5289 29.722 40.8075 29.3848 40.9009 29.0023C40.9402 28.8108 40.9319 28.6149 40.8764 28.4259C40.821 28.2369 40.7195 28.0586 40.5778 27.9012C40.4361 27.7438 40.257 27.6104 40.0508 27.5087C39.8446 27.407 39.6154 27.339 39.3763 27.3085Z" fill="#101130"/>
</svg>
