<svg width="45" height="37" viewBox="0 0 45 37" fill="none" xmlns="http://www.w3.org/2000/svg">
<path opacity="0.8" d="M39.3763 3.74323C38.0596 3.56138 36.7263 3.46777 35.3902 3.46339C30.8317 3.46039 26.3683 4.50849 22.532 6.48275C18.6858 4.53441 14.2231 3.51204 9.67372 3.53703C8.33765 3.54142 7.00436 3.63502 5.68766 3.81687C5.25637 3.87649 4.8658 4.05762 4.58629 4.32765C4.30677 4.59768 4.15668 4.93885 4.16304 5.28973V22.9641C4.15911 23.1805 4.21471 23.3949 4.32588 23.5922C4.43706 23.7894 4.60108 23.9645 4.80627 24.1052C5.01147 24.2458 5.25279 24.3484 5.51308 24.4058C5.77336 24.4631 6.04621 24.4738 6.31221 24.4369C8.94451 24.0715 11.6414 24.1321 14.244 24.6153C16.8467 25.0984 19.3024 25.9943 21.4666 27.2501L21.687 27.3532H21.889C22.0928 27.4213 22.3113 27.4563 22.532 27.4563C22.7527 27.4563 22.9712 27.4213 23.1749 27.3532H23.3769L23.5974 27.2501C25.7464 25.9662 28.1951 25.0413 30.7982 24.5302C33.4014 24.0192 36.106 23.9324 38.7517 24.2749C39.0177 24.3117 39.2906 24.3011 39.5508 24.2438C39.8111 24.1864 40.0524 24.0838 40.2576 23.9432C40.4628 23.8025 40.6269 23.6274 40.738 23.4301C40.8492 23.2329 40.9048 23.0185 40.9009 22.8021V5.12772C40.8818 4.79213 40.7201 4.47187 40.4428 4.22005C40.1655 3.96823 39.7892 3.79999 39.3763 3.74323ZM20.6951 23.3176C17.2966 21.884 13.5138 21.1358 9.67372 21.1377C9.06754 21.1377 8.46137 21.1377 7.83683 21.1377V6.40911C8.44862 6.38084 9.06193 6.38084 9.67372 6.40911C13.5925 6.40564 17.4258 7.32772 20.6951 9.06026V23.3176ZM37.2271 21.1966C36.6025 21.1966 35.9964 21.1966 35.3902 21.1966C31.5501 21.1947 27.7673 21.9429 24.3689 23.3765V9.06026C27.6381 7.32772 31.4714 6.40564 35.3902 6.40911C36.002 6.38084 36.6153 6.38084 37.2271 6.40911V21.1966ZM39.3763 27.309C38.0596 27.1272 36.7263 27.0336 35.3902 27.0292C30.8317 27.0262 26.3683 28.0743 22.532 30.0485C18.6956 28.0743 14.2322 27.0262 9.67372 27.0292C8.33765 27.0336 7.00436 27.1272 5.68766 27.309C5.44855 27.3394 5.2193 27.4075 5.01309 27.5092C4.80688 27.6109 4.62778 27.7443 4.48609 27.9017C4.3444 28.0591 4.24292 28.2374 4.18748 28.4264C4.13204 28.6154 4.12374 28.8113 4.16304 29.0028C4.25639 29.3853 4.535 29.7225 4.93783 29.9406C5.34066 30.1587 5.83487 30.2399 6.31221 30.1664C8.94451 29.8009 11.6414 29.8616 14.244 30.3447C16.8467 30.8278 19.3024 31.7237 21.4666 32.9795C21.7777 33.1571 22.1501 33.2526 22.532 33.2526C22.9139 33.2526 23.2863 33.1571 23.5974 32.9795C25.7615 31.7237 28.2173 30.8278 30.8199 30.3447C33.4225 29.8616 36.1194 29.8009 38.7517 30.1664C39.229 30.2399 39.7233 30.1587 40.1261 29.9406C40.5289 29.7225 40.8075 29.3853 40.9009 29.0028C40.9402 28.8113 40.9319 28.6154 40.8764 28.4264C40.821 28.2374 40.7195 28.0591 40.5778 27.9017C40.4361 27.7443 40.257 27.6109 40.0508 27.5092C39.8446 27.4075 39.6154 27.3394 39.3763 27.309Z" fill="#101130"/>
</svg>
