<svg width="45" height="36" viewBox="0 0 45 36" fill="none" xmlns="http://www.w3.org/2000/svg">
<path opacity="0.8" d="M39.3763 3.08969C38.0596 2.90449 36.7263 2.80916 35.3902 2.80469C30.8317 2.80164 26.3683 3.86905 22.532 5.87969C18.6858 3.89545 14.2231 2.85424 9.67372 2.87969C8.33765 2.88416 7.00436 2.97949 5.68766 3.16469C5.25637 3.22541 4.8658 3.40988 4.58629 3.68488C4.30677 3.95988 4.15668 4.30735 4.16304 4.66469V22.6647C4.15911 22.8851 4.21471 23.1035 4.32588 23.3044C4.43706 23.5052 4.60108 23.6836 4.80627 23.8268C5.01147 23.97 5.25279 24.0746 5.51308 24.1329C5.77336 24.1913 6.04621 24.2022 6.31221 24.1647C8.94451 23.7925 11.6414 23.8543 14.244 24.3463C16.8467 24.8383 19.3024 25.7507 21.4666 27.0297L21.687 27.1347H21.889C22.0928 27.204 22.3113 27.2397 22.532 27.2397C22.7527 27.2397 22.9712 27.204 23.1749 27.1347H23.3769L23.5974 27.0297C25.7464 25.7221 28.1951 24.7802 30.7982 24.2597C33.4014 23.7392 36.106 23.6508 38.7517 23.9997C39.0177 24.0372 39.2906 24.0263 39.5508 23.9679C39.8111 23.9096 40.0524 23.805 40.2576 23.6618C40.4628 23.5186 40.6269 23.3402 40.738 23.1394C40.8492 22.9385 40.9048 22.7201 40.9009 22.4997V4.49969C40.8818 4.15792 40.7201 3.83176 40.4428 3.5753C40.1655 3.31884 39.7892 3.1475 39.3763 3.08969ZM20.6951 23.0247C17.2966 21.5647 13.5138 20.8028 9.67372 20.8047C9.06754 20.8047 8.46137 20.8047 7.83683 20.8047V5.80469C8.44862 5.7759 9.06193 5.7759 9.67372 5.80469C13.5925 5.80116 17.4258 6.74023 20.6951 8.50469V23.0247ZM37.2271 20.8647C36.6025 20.8647 35.9964 20.8647 35.3902 20.8647C31.5501 20.8628 27.7673 21.6247 24.3689 23.0847V8.50469C27.6381 6.74023 31.4714 5.80116 35.3902 5.80469C36.002 5.7759 36.6153 5.7759 37.2271 5.80469V20.8647ZM39.3763 27.0897C38.0596 26.9045 36.7263 26.8092 35.3902 26.8047C30.8317 26.8016 26.3683 27.8691 22.532 29.8797C18.6956 27.8691 14.2322 26.8016 9.67372 26.8047C8.33765 26.8092 7.00436 26.9045 5.68766 27.0897C5.44855 27.1207 5.2193 27.19 5.01309 27.2935C4.80688 27.3971 4.62778 27.533 4.48609 27.6933C4.3444 27.8536 4.24292 28.0352 4.18748 28.2277C4.13204 28.4201 4.12374 28.6196 4.16304 28.8147C4.25639 29.2042 4.535 29.5477 4.93783 29.7698C5.34066 29.9919 5.83487 30.0746 6.31221 29.9997C8.94451 29.6275 11.6414 29.6893 14.244 30.1813C16.8467 30.6733 19.3024 31.5857 21.4666 32.8647C21.7777 33.0456 22.1501 33.1428 22.532 33.1428C22.9139 33.1428 23.2863 33.0456 23.5974 32.8647C25.7615 31.5857 28.2173 30.6733 30.8199 30.1813C33.4225 29.6893 36.1194 29.6275 38.7517 29.9997C39.229 30.0746 39.7233 29.9919 40.1261 29.7698C40.5289 29.5477 40.8075 29.2042 40.9009 28.8147C40.9402 28.6196 40.9319 28.4201 40.8764 28.2277C40.821 28.0352 40.7195 27.8536 40.5778 27.6933C40.4361 27.533 40.257 27.3971 40.0508 27.2935C39.8446 27.19 39.6154 27.1207 39.3763 27.0897Z" fill="#101130"/>
</svg>
