<svg width="45" height="36" viewBox="0 0 45 36" fill="none" xmlns="http://www.w3.org/2000/svg">
<path opacity="0.8" d="M39.064 21.1597H37.2271V6.43108H39.064C39.5512 6.43108 40.0184 6.2759 40.3629 5.99968C40.7074 5.72347 40.9009 5.34884 40.9009 4.95821C40.9009 4.56759 40.7074 4.19296 40.3629 3.91674C40.0184 3.64053 39.5512 3.48535 39.064 3.48535H5.99998C5.5128 3.48535 5.04558 3.64053 4.7011 3.91674C4.35661 4.19296 4.16309 4.56759 4.16309 4.95821C4.16309 5.34884 4.35661 5.72347 4.7011 5.99968C5.04558 6.2759 5.5128 6.43108 5.99998 6.43108H7.83687V21.1597H5.99998C5.5128 21.1597 5.04558 21.3149 4.7011 21.5911C4.35661 21.8673 4.16309 22.2419 4.16309 22.6326C4.16309 23.0232 4.35661 23.3978 4.7011 23.674C5.04558 23.9502 5.5128 24.1054 5.99998 24.1054H20.6951V25.7992L12.3373 30.2178C11.9944 30.388 11.7309 30.6439 11.5874 30.9461C11.4439 31.2483 11.4284 31.5799 11.5433 31.8899C11.6583 32.1998 11.8972 32.4708 12.2232 32.6611C12.5493 32.8513 12.9444 32.9502 13.3475 32.9426C13.7087 32.9459 14.062 32.8583 14.3578 32.6922L20.6951 29.3341V31.4697C20.6951 31.8604 20.8886 32.235 21.2331 32.5112C21.5776 32.7874 22.0448 32.9426 22.532 32.9426C23.0192 32.9426 23.4864 32.7874 23.8309 32.5112C24.1754 32.235 24.3689 31.8604 24.3689 31.4697V29.3341L30.7062 32.6922C31.002 32.8583 31.3553 32.9459 31.7165 32.9426C32.1089 32.9402 32.4901 32.837 32.8041 32.6483C33.1181 32.4595 33.3485 32.1951 33.4614 31.8937C33.5744 31.5923 33.564 31.2699 33.4318 30.9736C33.2996 30.6773 33.0525 30.4228 32.7267 30.2472L24.3689 25.8287V24.1054H39.064C39.5512 24.1054 40.0184 23.9502 40.3629 23.674C40.7074 23.3978 40.9009 23.0232 40.9009 22.6326C40.9009 22.2419 40.7074 21.8673 40.3629 21.5911C40.0184 21.3149 39.5512 21.1597 39.064 21.1597ZM33.5534 21.1597H11.5107V6.43108H33.5534V21.1597ZM18.1418 18.5969C18.6314 18.8288 19.1896 18.9512 19.7583 18.9512C20.3269 18.9512 20.8852 18.8288 21.3748 18.5969L26.8854 16.0341C27.3565 15.8023 27.7456 15.4775 28.0156 15.0907C28.2855 14.7039 28.4272 14.2681 28.4272 13.8248C28.4272 13.3816 28.2855 12.9458 28.0156 12.559C27.7456 12.1722 27.3565 11.8474 26.8854 11.6155L21.3748 9.05277C20.8852 8.82084 20.3269 8.69849 19.7583 8.69849C19.1896 8.69849 18.6314 8.82084 18.1418 9.05277C17.6485 9.27576 17.2395 9.60154 16.9582 9.99565C16.6769 10.3897 16.5337 10.8375 16.5437 11.2915V16.4171C16.5468 16.8611 16.6962 17.2966 16.9769 17.6795C17.2575 18.0623 17.6594 18.3788 18.1418 18.5969ZM20.2175 11.8512L24.3689 13.7954L20.1808 15.7396L20.2175 11.8512Z" fill="#101130"/>
</svg>
