<svg width="45" height="36" viewBox="0 0 45 36" fill="none" xmlns="http://www.w3.org/2000/svg">
<path opacity="0.8" d="M39.4625 21H37.6256V6H39.4625C39.9496 6 40.4169 5.84196 40.7613 5.56066C41.1058 5.27936 41.2994 4.89782 41.2994 4.5C41.2994 4.10218 41.1058 3.72064 40.7613 3.43934C40.4169 3.15804 39.9496 3 39.4625 3H6.39841C5.91124 3 5.44402 3.15804 5.09954 3.43934C4.75505 3.72064 4.56152 4.10218 4.56152 4.5C4.56152 4.89782 4.75505 5.27936 5.09954 5.56066C5.44402 5.84196 5.91124 6 6.39841 6H8.23531V21H6.39841C5.91124 21 5.44402 21.158 5.09954 21.4393C4.75505 21.7206 4.56152 22.1022 4.56152 22.5C4.56152 22.8978 4.75505 23.2794 5.09954 23.5607C5.44402 23.842 5.91124 24 6.39841 24H21.0935V25.725L12.7357 30.225C12.3928 30.3983 12.1293 30.659 11.9858 30.9667C11.8423 31.2745 11.8269 31.6122 11.9418 31.9279C12.0567 32.2435 12.2956 32.5195 12.6217 32.7133C12.9477 32.907 13.3428 33.0078 13.746 33C14.1071 33.0034 14.4605 32.9142 14.7563 32.745L21.0935 29.325V31.5C21.0935 31.8978 21.2871 32.2794 21.6316 32.5607C21.976 32.842 22.4433 33 22.9304 33C23.4176 33 23.8848 32.842 24.2293 32.5607C24.5738 32.2794 24.7673 31.8978 24.7673 31.5V29.325L31.1046 32.745C31.4004 32.9142 31.7538 33.0034 32.1149 33C32.5073 32.9975 32.8885 32.8925 33.2025 32.7002C33.5165 32.508 33.7469 32.2387 33.8599 31.9318C33.9728 31.6249 33.9625 31.2965 33.8302 30.9947C33.698 30.693 33.4509 30.4337 33.1252 30.255L24.7673 25.755V24H39.4625C39.9496 24 40.4169 23.842 40.7613 23.5607C41.1058 23.2794 41.2994 22.8978 41.2994 22.5C41.2994 22.1022 41.1058 21.7206 40.7613 21.4393C40.4169 21.158 39.9496 21 39.4625 21ZM33.9518 21H11.9091V6H33.9518V21ZM18.5403 18.39C19.0299 18.6262 19.5881 18.7508 20.1567 18.7508C20.7254 18.7508 21.2836 18.6262 21.7732 18.39L27.2839 15.78C27.755 15.5439 28.1441 15.2131 28.414 14.8192C28.6839 14.4252 28.8257 13.9814 28.8257 13.53C28.8257 13.0786 28.6839 12.6348 28.414 12.2408C28.1441 11.8469 27.755 11.5161 27.2839 11.28L21.7732 8.67C21.2836 8.4338 20.7254 8.30919 20.1567 8.30919C19.5881 8.30919 19.0299 8.4338 18.5403 8.67C18.0469 8.8971 17.638 9.22889 17.3566 9.63025C17.0753 10.0316 16.9321 10.4876 16.9422 10.95V16.17C16.9452 16.6222 17.0947 17.0658 17.3753 17.4556C17.656 17.8455 18.0579 18.1679 18.5403 18.39ZM20.616 11.52L24.7673 13.5L20.5792 15.48L20.616 11.52Z" fill="#101130"/>
</svg>
