<svg width="45" height="36" viewBox="0 0 45 36" fill="none" xmlns="http://www.w3.org/2000/svg">
<path opacity="0.8" d="M39.064 21H37.2271V6H39.064C39.5512 6 40.0184 5.84196 40.3629 5.56066C40.7074 5.27936 40.9009 4.89782 40.9009 4.5C40.9009 4.10218 40.7074 3.72064 40.3629 3.43934C40.0184 3.15804 39.5512 3 39.064 3H5.99998C5.5128 3 5.04558 3.15804 4.7011 3.43934C4.35661 3.72064 4.16309 4.10218 4.16309 4.5C4.16309 4.89782 4.35661 5.27936 4.7011 5.56066C5.04558 5.84196 5.5128 6 5.99998 6H7.83687V21H5.99998C5.5128 21 5.04558 21.158 4.7011 21.4393C4.35661 21.7206 4.16309 22.1022 4.16309 22.5C4.16309 22.8978 4.35661 23.2794 4.7011 23.5607C5.04558 23.842 5.5128 24 5.99998 24H20.6951V25.725L12.3373 30.225C11.9944 30.3983 11.7309 30.659 11.5874 30.9667C11.4439 31.2745 11.4284 31.6122 11.5433 31.9279C11.6583 32.2435 11.8972 32.5195 12.2232 32.7133C12.5493 32.907 12.9444 33.0078 13.3475 33C13.7087 33.0034 14.062 32.9142 14.3578 32.745L20.6951 29.325V31.5C20.6951 31.8978 20.8886 32.2794 21.2331 32.5607C21.5776 32.842 22.0448 33 22.532 33C23.0192 33 23.4864 32.842 23.8309 32.5607C24.1754 32.2794 24.3689 31.8978 24.3689 31.5V29.325L30.7062 32.745C31.002 32.9142 31.3553 33.0034 31.7165 33C32.1089 32.9975 32.4901 32.8925 32.8041 32.7002C33.1181 32.508 33.3485 32.2387 33.4614 31.9318C33.5744 31.6249 33.564 31.2965 33.4318 30.9947C33.2996 30.693 33.0525 30.4337 32.7267 30.255L24.3689 25.755V24H39.064C39.5512 24 40.0184 23.842 40.3629 23.5607C40.7074 23.2794 40.9009 22.8978 40.9009 22.5C40.9009 22.1022 40.7074 21.7206 40.3629 21.4393C40.0184 21.158 39.5512 21 39.064 21ZM33.5534 21H11.5107V6H33.5534V21ZM18.1418 18.39C18.6314 18.6262 19.1896 18.7508 19.7583 18.7508C20.3269 18.7508 20.8852 18.6262 21.3748 18.39L26.8854 15.78C27.3565 15.5439 27.7456 15.2131 28.0156 14.8192C28.2855 14.4252 28.4272 13.9814 28.4272 13.53C28.4272 13.0786 28.2855 12.6348 28.0156 12.2408C27.7456 11.8469 27.3565 11.5161 26.8854 11.28L21.3748 8.67C20.8852 8.4338 20.3269 8.30919 19.7583 8.30919C19.1896 8.30919 18.6314 8.4338 18.1418 8.67C17.6485 8.8971 17.2395 9.22889 16.9582 9.63025C16.6769 10.0316 16.5337 10.4876 16.5437 10.95V16.17C16.5468 16.6222 16.6962 17.0658 16.9769 17.4556C17.2575 17.8455 17.6594 18.1679 18.1418 18.39ZM20.2175 11.52L24.3689 13.5L20.1808 15.48L20.2175 11.52Z" fill="#101130"/>
</svg>
