<svg width="87" height="18" viewBox="0 0 87 18" fill="none" xmlns="http://www.w3.org/2000/svg">
<g clip-path="url(#clip0_53_3402)">
<path d="M9 1.35931L11.0381 6.51164L11.1521 6.79991L11.461 6.82595L16.8074 7.27663L12.7154 10.9623L12.4975 11.1585L12.5624 11.4444L13.8044 16.919L9.27019 14.007L9 13.8335L8.72981 14.007L4.19564 16.919L5.43761 11.4444L5.50247 11.1585L5.28462 10.9623L1.19259 7.27663L6.53897 6.82595L6.84788 6.79991L6.96191 6.51164L9 1.35931Z" fill="#FFE603" stroke="white"/>
</g>
<g clip-path="url(#clip1_53_3402)">
<path d="M55 1.35931L57.0381 6.51164L57.1521 6.79991L57.461 6.82595L62.8074 7.27663L58.7154 10.9623L58.4975 11.1585L58.5624 11.4444L59.8044 16.919L55.2702 14.007L55 13.8335L54.7298 14.007L50.1956 16.919L51.4376 11.4444L51.5025 11.1585L51.2846 10.9623L47.1926 7.27663L52.539 6.82595L52.8479 6.79991L52.9619 6.51164L55 1.35931Z" fill="#FFE603" stroke="white"/>
</g>
<g clip-path="url(#clip2_53_3402)">
<path d="M32 1.35931L34.0381 6.51164L34.1521 6.79991L34.461 6.82595L39.8074 7.27663L35.7154 10.9623L35.4975 11.1585L35.5624 11.4444L36.8044 16.919L32.2702 14.007L32 13.8335L31.7298 14.007L27.1956 16.919L28.4376 11.4444L28.5025 11.1585L28.2846 10.9623L24.1926 7.27663L29.539 6.82595L29.8479 6.79991L29.9619 6.51164L32 1.35931Z" fill="#FFE603" stroke="white"/>
</g>
<g clip-path="url(#clip3_53_3402)">
<path d="M78 1.35931L80.0381 6.51164L80.1521 6.79991L80.461 6.82595L85.8074 7.27663L81.7154 10.9623L81.4975 11.1585L81.5624 11.4444L82.8044 16.919L78.2702 14.007L78 13.8335L77.7298 14.007L73.1956 16.919L74.4376 11.4444L74.5025 11.1585L74.2846 10.9623L70.1926 7.27663L75.539 6.82595L75.8479 6.79991L75.9619 6.51164L78 1.35931Z" fill="#FFE603" stroke="white"/>
</g>
<defs>
<clipPath id="clip0_53_3402">
<rect width="18" height="18" fill="white"/>
</clipPath>
<clipPath id="clip1_53_3402">
<rect width="18" height="18" fill="white" transform="translate(46)"/>
</clipPath>
<clipPath id="clip2_53_3402">
<rect width="18" height="18" fill="white" transform="translate(23)"/>
</clipPath>
<clipPath id="clip3_53_3402">
<rect width="18" height="18" fill="white" transform="translate(69)"/>
</clipPath>
</defs>
</svg>
